<svg width="17" height="16" viewBox="0 0 17 16" fill="none" xmlns="http://www.w3.org/2000/svg">
<path d="M14.5 2.75H2.5C2.30109 2.75 2.11032 2.82902 1.96967 2.96967C1.82902 3.11032 1.75 3.30109 1.75 3.5V12C1.75 12.3315 1.8817 12.6495 2.11612 12.8839C2.35054 13.1183 2.66848 13.25 3 13.25H14C14.3315 13.25 14.6495 13.1183 14.8839 12.8839C15.1183 12.6495 15.25 12.3315 15.25 12V3.5C15.25 3.30109 15.171 3.11032 15.0303 2.96967C14.8897 2.82902 14.6989 2.75 14.5 2.75ZM12.5719 4.25L8.5 7.9825L4.42812 4.25H12.5719ZM3.25 11.75V5.205L7.99312 9.55313C8.13146 9.67997 8.31232 9.75033 8.5 9.75033C8.68768 9.75033 8.86854 9.67997 9.00688 9.55313L13.75 5.205V11.75H3.25Z" fill="#1F1F23"/>
</svg>
