<svg width="17" height="17" viewBox="0 0 17 17" fill="none" xmlns="http://www.w3.org/2000/svg">
<g clip-path="url(#clip0_13009_12594)">
<path d="M14.4062 3.02881H12.1562V2.27881C12.1562 1.81468 11.9719 1.36956 11.6437 1.04137C11.3155 0.713183 10.8704 0.528809 10.4062 0.528809H7.40625C6.94212 0.528809 6.497 0.713183 6.16881 1.04137C5.84062 1.36956 5.65625 1.81468 5.65625 2.27881V3.02881H3.40625C3.20734 3.02881 3.01657 3.10783 2.87592 3.24848C2.73527 3.38913 2.65625 3.5799 2.65625 3.77881C2.65625 3.97772 2.73527 4.16849 2.87592 4.30914C3.01657 4.44979 3.20734 4.52881 3.40625 4.52881H3.65625V13.0288C3.65625 13.3603 3.78795 13.6783 4.02237 13.9127C4.25679 14.1471 4.57473 14.2788 4.90625 14.2788H12.9062C13.2378 14.2788 13.5557 14.1471 13.7901 13.9127C14.0246 13.6783 14.1562 13.3603 14.1562 13.0288V4.52881H14.4062C14.6052 4.52881 14.7959 4.44979 14.9366 4.30914C15.0772 4.16849 15.1562 3.97772 15.1562 3.77881C15.1562 3.5799 15.0772 3.38913 14.9366 3.24848C14.7959 3.10783 14.6052 3.02881 14.4062 3.02881ZM7.15625 2.27881C7.15625 2.2125 7.18259 2.14892 7.22947 2.10203C7.27636 2.05515 7.33995 2.02881 7.40625 2.02881H10.4062C10.4726 2.02881 10.5361 2.05515 10.583 2.10203C10.6299 2.14892 10.6562 2.2125 10.6562 2.27881V3.02881H7.15625V2.27881ZM12.6562 12.7788H5.15625V4.52881H12.6562V12.7788ZM8.15625 6.52881V10.5288C8.15625 10.7277 8.07723 10.9185 7.93658 11.0591C7.79593 11.1998 7.60516 11.2788 7.40625 11.2788C7.20734 11.2788 7.01657 11.1998 6.87592 11.0591C6.73527 10.9185 6.65625 10.7277 6.65625 10.5288V6.52881C6.65625 6.3299 6.73527 6.13913 6.87592 5.99848C7.01657 5.85783 7.20734 5.77881 7.40625 5.77881C7.60516 5.77881 7.79593 5.85783 7.93658 5.99848C8.07723 6.13913 8.15625 6.3299 8.15625 6.52881ZM11.1562 6.52881V10.5288C11.1562 10.7277 11.0772 10.9185 10.9366 11.0591C10.7959 11.1998 10.6052 11.2788 10.4062 11.2788C10.2073 11.2788 10.0166 11.1998 9.87592 11.0591C9.73527 10.9185 9.65625 10.7277 9.65625 10.5288V6.52881C9.65625 6.3299 9.73527 6.13913 9.87592 5.99848C10.0166 5.85783 10.2073 5.77881 10.4062 5.77881C10.6052 5.77881 10.7959 5.85783 10.9366 5.99848C11.0772 6.13913 11.1562 6.3299 11.1562 6.52881Z" fill="#1F1F23"/>
</g>
<defs>
<clipPath id="clip0_13009_12594">
<rect width="16" height="16" fill="white" transform="translate(0.90625 0.0288086)"/>
</clipPath>
</defs>
</svg>
