<svg width="13" height="12" viewBox="0 0 13 12" fill="none" xmlns="http://www.w3.org/2000/svg">
<path d="M11.0819 6C11.0819 6.14918 11.0226 6.29226 10.9172 6.39775C10.8117 6.50324 10.6686 6.5625 10.5194 6.5625H6.95691V10.125C6.95691 10.2742 6.89765 10.4173 6.79216 10.5227C6.68667 10.6282 6.54359 10.6875 6.39441 10.6875C6.24522 10.6875 6.10215 10.6282 5.99666 10.5227C5.89117 10.4173 5.83191 10.2742 5.83191 10.125V6.5625H2.26941C2.12022 6.5625 1.97715 6.50324 1.87166 6.39775C1.76617 6.29226 1.70691 6.14918 1.70691 6C1.70691 5.85082 1.76617 5.70774 1.87166 5.60225C1.97715 5.49676 2.12022 5.4375 2.26941 5.4375H5.83191V1.875C5.83191 1.72582 5.89117 1.58274 5.99666 1.47725C6.10215 1.37176 6.24522 1.3125 6.39441 1.3125C6.54359 1.3125 6.68667 1.37176 6.79216 1.47725C6.89765 1.58274 6.95691 1.72582 6.95691 1.875V5.4375H10.5194C10.6686 5.4375 10.8117 5.49676 10.9172 5.60225C11.0226 5.70774 11.0819 5.85082 11.0819 6Z" fill="#6C6C7A"/>
</svg>
