<svg width="16" height="16" viewBox="0 0 16 16" fill="none" xmlns="http://www.w3.org/2000/svg">
<path d="M13.5306 11.5306L10.5306 14.5306C10.3897 14.6715 10.1986 14.7507 9.99938 14.7507C9.80012 14.7507 9.60902 14.6715 9.46813 14.5306C9.32723 14.3897 9.24807 14.1986 9.24807 13.9994C9.24807 13.8001 9.32723 13.609 9.46813 13.4681L11.1875 11.75H4C3.80109 11.75 3.61032 11.671 3.46967 11.5303C3.32902 11.3897 3.25 11.1989 3.25 11V2C3.25 1.80109 3.32902 1.61032 3.46967 1.46967C3.61032 1.32902 3.80109 1.25 4 1.25C4.19891 1.25 4.38968 1.32902 4.53033 1.46967C4.67098 1.61032 4.75 1.80109 4.75 2V10.25H11.1875L9.4675 8.53063C9.39773 8.46086 9.3424 8.37804 9.30464 8.28689C9.26688 8.19573 9.24745 8.09804 9.24745 7.99937C9.24745 7.90071 9.26688 7.80302 9.30464 7.71186C9.3424 7.62071 9.39773 7.53789 9.4675 7.46812C9.53726 7.39836 9.62009 7.34302 9.71124 7.30526C9.80239 7.26751 9.90009 7.24807 9.99875 7.24807C10.0974 7.24807 10.1951 7.26751 10.2863 7.30526C10.3774 7.34302 10.4602 7.39836 10.53 7.46812L13.53 10.4681C13.6 10.5378 13.6555 10.6205 13.6934 10.7117C13.7313 10.8028 13.7508 10.9005 13.7509 10.9992C13.751 11.098 13.7315 11.1957 13.6937 11.2869C13.6559 11.3781 13.6005 11.4609 13.5306 11.5306Z" fill="#492FF4"/>
</svg>
