<svg width="17" height="16" viewBox="0 0 17 16" fill="none" xmlns="http://www.w3.org/2000/svg">
<path d="M9.42501 8.5306L4.42501 13.5306C4.35524 13.6004 4.27242 13.6557 4.18127 13.6935C4.09012 13.7312 3.99242 13.7506 3.89376 13.7506C3.79509 13.7506 3.6974 13.7312 3.60625 13.6935C3.51509 13.6557 3.43227 13.6004 3.36251 13.5306C3.29274 13.4608 3.2374 13.378 3.19965 13.2869C3.16189 13.1957 3.14246 13.098 3.14246 12.9993C3.14246 12.9007 3.16189 12.803 3.19965 12.7118C3.2374 12.6207 3.29274 12.5379 3.36251 12.4681L7.83188 7.99997L3.36376 3.5306C3.22286 3.3897 3.14371 3.19861 3.14371 2.99935C3.14371 2.80009 3.22286 2.60899 3.36376 2.4681C3.50465 2.3272 3.69575 2.24805 3.89501 2.24805C4.09426 2.24805 4.28536 2.3272 4.42626 2.4681L9.42626 7.4681C9.49609 7.53786 9.55148 7.62072 9.58922 7.71193C9.62697 7.80313 9.64634 7.9009 9.64622 7.99961C9.64611 8.09832 9.62651 8.19603 9.58855 8.28715C9.55058 8.37827 9.49501 8.461 9.42501 8.5306ZM14.425 7.4681L9.42501 2.4681C9.35524 2.39833 9.27242 2.34299 9.18127 2.30524C9.09012 2.26748 8.99242 2.24805 8.89376 2.24805C8.7951 2.24805 8.6974 2.26748 8.60625 2.30524C8.51509 2.34299 8.43227 2.39833 8.36251 2.4681C8.29274 2.53786 8.2374 2.62069 8.19965 2.71184C8.16189 2.80299 8.14246 2.90069 8.14246 2.99935C8.14246 3.09801 8.16189 3.19571 8.19965 3.28686C8.2374 3.37801 8.29274 3.46083 8.36251 3.5306L12.8319 7.99997L8.36188 12.4693C8.22099 12.6102 8.14183 12.8013 8.14183 13.0006C8.14183 13.1999 8.22099 13.391 8.36188 13.5318C8.50278 13.6727 8.69387 13.7519 8.89313 13.7519C9.09239 13.7519 9.28349 13.6727 9.42438 13.5318L14.4244 8.53185C14.4943 8.46221 14.5499 8.37945 14.5878 8.28831C14.6257 8.19717 14.6452 8.09944 14.6453 8.00073C14.6453 7.90202 14.6259 7.80427 14.5881 7.71308C14.5503 7.62189 14.4949 7.53907 14.425 7.46935V7.4681Z" fill="#1F1F23"/>
</svg>
