<svg width="16" height="16" viewBox="0 0 16 16" fill="none" xmlns="http://www.w3.org/2000/svg">
<path d="M5.5 10C7.29493 10 8.75 8.54493 8.75 6.75C8.75 4.95507 7.29493 3.5 5.5 3.5C3.70507 3.5 2.25 4.95507 2.25 6.75C2.25 8.54493 3.70507 10 5.5 10Z" stroke="#1F1F23" stroke-width="1.5" stroke-linecap="round" stroke-linejoin="round"/>
<path d="M9.71354 3.62115C10.1606 3.4952 10.6294 3.46651 11.0884 3.53701C11.5474 3.6075 11.986 3.77555 12.3747 4.02983C12.7633 4.2841 13.0929 4.61871 13.3413 5.0111C13.5897 5.40349 13.7512 5.84456 13.8148 6.30461C13.8784 6.76465 13.8426 7.23297 13.71 7.67805C13.5774 8.12312 13.3509 8.5346 13.0458 8.88477C12.7408 9.23495 12.3642 9.51568 11.9415 9.70807C11.5188 9.90046 11.0598 10 10.5954 10.0001" stroke="#1F1F23" stroke-width="1.5" stroke-linecap="round" stroke-linejoin="round"/>
<path d="M1 12.3373C1.50755 11.6153 2.18138 11.026 2.96458 10.6192C3.74778 10.2124 4.61736 10 5.49991 10C6.38246 9.99997 7.25206 10.2123 8.03529 10.619C8.81852 11.0258 9.49239 11.615 10 12.3369" stroke="#1F1F23" stroke-width="1.5" stroke-linecap="round" stroke-linejoin="round"/>
<path d="M10.5951 10C11.4777 9.99936 12.3475 10.2114 13.1308 10.6182C13.9141 11.025 14.5879 11.6146 15.0951 12.337" stroke="#1F1F23" stroke-width="1.5" stroke-linecap="round" stroke-linejoin="round"/>
</svg>
