<svg width="17" height="17" viewBox="0 0 17 17" fill="none" xmlns="http://www.w3.org/2000/svg">
<path d="M14.2734 9.58008V13.0801C14.2734 13.4116 14.1417 13.7295 13.9073 13.964C13.6729 14.1984 13.355 14.3301 13.0234 14.3301H3.02344C2.69192 14.3301 2.37397 14.1984 2.13955 13.964C1.90513 13.7295 1.77344 13.4116 1.77344 13.0801V9.58008C1.77344 9.38117 1.85246 9.1904 1.99311 9.04975C2.13376 8.9091 2.32453 8.83008 2.52344 8.83008C2.72235 8.83008 2.91312 8.9091 3.05377 9.04975C3.19442 9.1904 3.27344 9.38117 3.27344 9.58008V12.8301H12.7734V9.58008C12.7734 9.38117 12.8525 9.1904 12.9931 9.04975C13.1338 8.9091 13.3245 8.83008 13.5234 8.83008C13.7223 8.83008 13.9131 8.9091 14.0538 9.04975C14.1944 9.1904 14.2734 9.38117 14.2734 9.58008ZM7.49281 10.1107C7.56249 10.1806 7.64528 10.2361 7.73645 10.274C7.82761 10.3118 7.92535 10.3313 8.02406 10.3313C8.12277 10.3313 8.22051 10.3118 8.31168 10.274C8.40284 10.2361 8.48563 10.1806 8.55531 10.1107L11.0553 7.6107C11.1962 7.46981 11.2754 7.27871 11.2754 7.07945C11.2754 6.8802 11.1962 6.6891 11.0553 6.5482C10.9144 6.40731 10.7233 6.32815 10.5241 6.32815C10.3248 6.32815 10.1337 6.40731 9.99281 6.5482L8.77344 7.76758V2.58008C8.77344 2.38117 8.69442 2.1904 8.55377 2.04975C8.41311 1.9091 8.22235 1.83008 8.02344 1.83008C7.82453 1.83008 7.63376 1.9091 7.49311 2.04975C7.35246 2.1904 7.27344 2.38117 7.27344 2.58008V7.76758L6.05406 6.54945C5.91317 6.40856 5.72207 6.3294 5.52281 6.3294C5.32355 6.3294 5.13246 6.40856 4.99156 6.54945C4.85067 6.69035 4.77151 6.88145 4.77151 7.0807C4.77151 7.27996 4.85067 7.47106 4.99156 7.61195L7.49281 10.1107Z" fill="#1F1F23"/>
</svg>
