<svg width="16" height="16" viewBox="0 0 16 16" fill="none" xmlns="http://www.w3.org/2000/svg">
<path d="M14 2.75H10C9.62516 2.74988 9.25428 2.82664 8.91028 2.97552C8.56628 3.12441 8.25647 3.34227 8 3.61563C7.74353 3.34227 7.43372 3.12441 7.08972 2.97552C6.74572 2.82664 6.37484 2.74988 6 2.75H2C1.66848 2.75 1.35054 2.8817 1.11612 3.11612C0.881696 3.35054 0.75 3.66848 0.75 4V12C0.75 12.3315 0.881696 12.6495 1.11612 12.8839C1.35054 13.1183 1.66848 13.25 2 13.25H6C6.33152 13.25 6.64946 13.3817 6.88388 13.6161C7.1183 13.8505 7.25 14.1685 7.25 14.5C7.25 14.6989 7.32902 14.8897 7.46967 15.0303C7.61032 15.171 7.80109 15.25 8 15.25C8.19891 15.25 8.38968 15.171 8.53033 15.0303C8.67098 14.8897 8.75 14.6989 8.75 14.5C8.75 14.1685 8.8817 13.8505 9.11612 13.6161C9.35054 13.3817 9.66848 13.25 10 13.25H14C14.3315 13.25 14.6495 13.1183 14.8839 12.8839C15.1183 12.6495 15.25 12.3315 15.25 12V4C15.25 3.66848 15.1183 3.35054 14.8839 3.11612C14.6495 2.8817 14.3315 2.75 14 2.75ZM6 11.75H2.25V4.25H6C6.33152 4.25 6.64946 4.3817 6.88388 4.61612C7.1183 4.85054 7.25 5.16848 7.25 5.5V12.0506C6.86311 11.8526 6.43463 11.7495 6 11.75ZM13.75 11.75H10C9.56525 11.7497 9.13671 11.8532 8.75 12.0519V5.5C8.75 5.16848 8.8817 4.85054 9.11612 4.61612C9.35054 4.3817 9.66848 4.25 10 4.25H13.75V11.75Z" fill="#1F1F23"/>
</svg>
