<svg width="17" height="16" viewBox="0 0 17 16" fill="none" xmlns="http://www.w3.org/2000/svg">
<path d="M11.4237 5.96938C11.4936 6.03905 11.5491 6.12185 11.5869 6.21301C11.6248 6.30417 11.6443 6.40191 11.6443 6.50063C11.6443 6.59934 11.6248 6.69708 11.5869 6.78824C11.5491 6.8794 11.4936 6.9622 11.4237 7.03188L7.92369 10.5319C7.85402 10.6018 7.77122 10.6573 7.68006 10.6951C7.58889 10.733 7.49115 10.7525 7.39244 10.7525C7.29373 10.7525 7.19599 10.733 7.10483 10.6951C7.01367 10.6573 6.93087 10.6018 6.86119 10.5319L5.36119 9.03187C5.29143 8.96211 5.23609 8.87929 5.19833 8.78814C5.16058 8.69698 5.14114 8.59929 5.14114 8.50062C5.14114 8.40196 5.16058 8.30427 5.19833 8.21311C5.23609 8.12196 5.29143 8.03914 5.36119 7.96938C5.43096 7.89961 5.51378 7.84427 5.60493 7.80651C5.69609 7.76876 5.79378 7.74932 5.89244 7.74932C5.99111 7.74932 6.0888 7.76876 6.17995 7.80651C6.27111 7.84427 6.35393 7.89961 6.42369 7.96938L7.39307 8.9375L10.3624 5.9675C10.4322 5.89789 10.515 5.84272 10.6062 5.80513C10.6973 5.76755 10.7949 5.7483 10.8935 5.74847C10.992 5.74865 11.0896 5.76825 11.1806 5.80615C11.2715 5.84405 11.3542 5.89952 11.4237 5.96938ZM15.1431 8C15.1431 9.33502 14.7472 10.6401 14.0055 11.7501C13.2638 12.8601 12.2096 13.7253 10.9762 14.2362C9.74278 14.7471 8.38558 14.8808 7.07621 14.6203C5.76684 14.3598 4.5641 13.717 3.6201 12.773C2.67609 11.829 2.03322 10.6262 1.77277 9.31686C1.51232 8.00749 1.64599 6.65029 2.15688 5.41689C2.66777 4.18349 3.53294 3.12928 4.64297 2.38758C5.753 1.64588 7.05805 1.25 8.39307 1.25C10.1827 1.25199 11.8984 1.96378 13.1638 3.22922C14.4293 4.49466 15.1411 6.2104 15.1431 8ZM13.6431 8C13.6431 6.96165 13.3352 5.94661 12.7583 5.08326C12.1814 4.2199 11.3615 3.54699 10.4022 3.14963C9.44284 2.75227 8.38725 2.6483 7.36884 2.85088C6.35044 3.05345 5.41498 3.55346 4.68076 4.28769C3.94653 5.02191 3.44652 5.95738 3.24395 6.97578C3.04137 7.99418 3.14534 9.04978 3.5427 10.0091C3.94006 10.9684 4.61297 11.7883 5.47633 12.3652C6.33968 12.9421 7.35472 13.25 8.39307 13.25C9.785 13.2485 11.1195 12.6949 12.1037 11.7107C13.088 10.7264 13.6416 9.39193 13.6431 8Z" fill="#06742B"/>
</svg>
