<svg width="17" height="17" viewBox="0 0 17 17" fill="none" xmlns="http://www.w3.org/2000/svg">
<g clip-path="url(#clip0_14240_51632)">
<path d="M8.02344 8.58008C9.12801 8.58008 10.0234 7.68465 10.0234 6.58008C10.0234 5.47551 9.12801 4.58008 8.02344 4.58008C6.91887 4.58008 6.02344 5.47551 6.02344 6.58008C6.02344 7.68465 6.91887 8.58008 8.02344 8.58008Z" stroke="#1F1F23" stroke-width="1.5" stroke-linecap="round" stroke-linejoin="round"/>
<path d="M13.0234 6.58008C13.0234 11.0801 8.02344 14.5801 8.02344 14.5801C8.02344 14.5801 3.02344 11.0801 3.02344 6.58008C3.02344 5.254 3.55022 3.98223 4.4879 3.04454C5.42559 2.10686 6.69736 1.58008 8.02344 1.58008C9.34952 1.58008 10.6213 2.10686 11.559 3.04454C12.4967 3.98223 13.0234 5.254 13.0234 6.58008V6.58008Z" stroke="#1F1F23" stroke-width="1.5" stroke-linecap="round" stroke-linejoin="round"/>
</g>
<defs>
<clipPath id="clip0_14240_51632">
<rect width="16" height="16" fill="white" transform="translate(0.0234375 0.0800781)"/>
</clipPath>
</defs>
</svg>
