<svg width="16" height="16" viewBox="0 0 16 16" fill="none" xmlns="http://www.w3.org/2000/svg">
<path d="M14.0806 10.3706C13.5381 9.4375 13.25 8.09812 13.25 6.5C13.25 5.10761 12.6969 3.77226 11.7123 2.78769C10.7278 1.80312 9.3924 1.25 8.00002 1.25C6.60763 1.25 5.27227 1.80312 4.28771 2.78769C3.30314 3.77226 2.75002 5.10761 2.75002 6.5C2.75002 8.09875 2.46314 9.4375 1.92064 10.3706C1.80994 10.561 1.75126 10.7771 1.7505 10.9972C1.74973 11.2174 1.8069 11.4339 1.91627 11.625C2.02494 11.8162 2.18268 11.9749 2.3732 12.0848C2.56371 12.1947 2.7801 12.2517 3.00002 12.25H13C13.2196 12.2514 13.4356 12.1942 13.6258 12.0843C13.8159 11.9745 13.9734 11.8159 14.0819 11.625C14.1917 11.4342 14.2494 11.2178 14.2492 10.9976C14.249 10.7775 14.1909 10.5612 14.0806 10.3706ZM3.41627 10.75C3.96939 9.625 4.25002 8.19625 4.25002 6.5C4.25002 5.50544 4.64511 4.55161 5.34837 3.84835C6.05163 3.14509 7.00546 2.75 8.00002 2.75C8.99458 2.75 9.94841 3.14509 10.6517 3.84835C11.3549 4.55161 11.75 5.50544 11.75 6.5C11.75 8.19562 12.03 9.625 12.5831 10.75H3.41627ZM10.75 14C10.75 14.1989 10.671 14.3897 10.5303 14.5303C10.3897 14.671 10.1989 14.75 10 14.75H6.00002C5.80111 14.75 5.61034 14.671 5.46969 14.5303C5.32903 14.3897 5.25002 14.1989 5.25002 14C5.25002 13.8011 5.32903 13.6103 5.46969 13.4697C5.61034 13.329 5.80111 13.25 6.00002 13.25H10C10.1989 13.25 10.3897 13.329 10.5303 13.4697C10.671 13.6103 10.75 13.8011 10.75 14Z" fill="#1F1F23"/>
</svg>
