<svg width="16" height="16" viewBox="0 0 16 16" fill="none" xmlns="http://www.w3.org/2000/svg">
<path d="M14.6431 2.99437C14.5452 2.7729 14.385 2.58465 14.1821 2.45251C13.9791 2.32036 13.7422 2.25001 13.5 2.25H2.5C2.25787 2.25002 2.02096 2.32037 1.81806 2.45249C1.61515 2.5846 1.45498 2.77281 1.35701 2.99423C1.25905 3.21565 1.22749 3.46076 1.26619 3.69978C1.30489 3.93879 1.41217 4.16143 1.575 4.34062L1.5825 4.34937L5.75 8.79688V13.5C5.74997 13.7263 5.81137 13.9484 5.92766 14.1425C6.04395 14.3367 6.21076 14.4956 6.4103 14.6023C6.60983 14.7091 6.83461 14.7597 7.06065 14.7487C7.28668 14.7377 7.5055 14.6656 7.69375 14.54L9.69375 13.2069C9.86498 13.0926 10.0054 12.9379 10.1024 12.7563C10.1994 12.5748 10.2501 12.3721 10.25 12.1663V8.79688L14.4169 4.34937L14.4244 4.34062C14.5873 4.16152 14.6947 3.93895 14.7335 3.69996C14.7724 3.46097 14.741 3.21585 14.6431 2.99437ZM9.08813 7.84312C8.87051 8.07458 8.74955 8.38043 8.75 8.69812V12.0325L7.25 13.0325V8.69812C7.25045 8.38043 7.12949 8.07458 6.91188 7.84312L3.07688 3.75H12.9231L9.08813 7.84312Z" fill="#1F1F23"/>
</svg>
