<svg width="17" height="17" viewBox="0 0 17 17" fill="none" xmlns="http://www.w3.org/2000/svg">
<path fill-rule="evenodd" clip-rule="evenodd" d="M8.02344 6.33008C7.05694 6.33008 6.27344 7.11358 6.27344 8.08008C6.27344 9.04658 7.05694 9.83008 8.02344 9.83008C8.98994 9.83008 9.77344 9.04658 9.77344 8.08008C9.77344 7.11358 8.98994 6.33008 8.02344 6.33008Z" fill="#1F1F23"/>
<path fill-rule="evenodd" clip-rule="evenodd" d="M8.02344 1.33008C7.05694 1.33008 6.27344 2.11358 6.27344 3.08008C6.27344 4.04658 7.05694 4.83008 8.02344 4.83008C8.98994 4.83008 9.77344 4.04658 9.77344 3.08008C9.77344 2.11358 8.98994 1.33008 8.02344 1.33008Z" fill="#1F1F23"/>
<path fill-rule="evenodd" clip-rule="evenodd" d="M8.02344 11.3301C7.05694 11.3301 6.27344 12.1136 6.27344 13.0801C6.27344 14.0466 7.05694 14.8301 8.02344 14.8301C8.98994 14.8301 9.77344 14.0466 9.77344 13.0801C9.77344 12.1136 8.98994 11.3301 8.02344 11.3301Z" fill="#1F1F23"/>
</svg>
