<svg width="16" height="16" viewBox="0 0 16 16" fill="none" xmlns="http://www.w3.org/2000/svg">
<path d="M14.3832 1.61625C14.2261 1.45911 14.0299 1.34669 13.8149 1.29055C13.6 1.23441 13.3739 1.2366 13.16 1.29688L13.1463 1.30125L1.15191 4.9375C0.908286 5.00814 0.691915 5.15122 0.53154 5.34775C0.371165 5.54428 0.274375 5.78495 0.254029 6.03779C0.233682 6.29063 0.29074 6.54368 0.417625 6.76333C0.54451 6.98297 0.735216 7.15882 0.964412 7.2675L6.23441 9.7675L8.73441 15.0375C8.8342 15.2516 8.99314 15.4326 9.19248 15.5593C9.39181 15.686 9.62322 15.753 9.85941 15.7525C9.89504 15.7525 9.93129 15.7525 9.96754 15.7481C10.2202 15.728 10.4606 15.6308 10.6563 15.4698C10.8519 15.3087 10.9935 15.0915 11.0619 14.8475L14.6982 2.85313C14.7 2.84867 14.7015 2.84407 14.7025 2.83938C14.7628 2.62551 14.765 2.39945 14.7089 2.18447C14.6527 1.96948 14.5403 1.77334 14.3832 1.61625ZM9.81191 13.8075L7.70441 9.35813L10.5325 6.53C10.6734 6.38911 10.7526 6.19801 10.7526 5.99875C10.7526 5.79949 10.6734 5.6084 10.5325 5.4675C10.3916 5.32661 10.2005 5.24745 10.0013 5.24745C9.80203 5.24745 9.61093 5.32661 9.47004 5.4675L6.64191 8.29563L2.19191 6.1875L13.1244 2.875L9.81191 13.8075Z" fill="#1F1F23"/>
</svg>
