<svg width="16" height="16" viewBox="0 0 16 16" fill="none" xmlns="http://www.w3.org/2000/svg">
<path d="M13.5556 13H2.46154C2.33924 12.9996 2.22205 12.9509 2.13558 12.8644C2.0491 12.7779 2.00036 12.6608 2 12.5385V5H13.5C13.6326 5 13.7598 5.05268 13.8536 5.14645C13.9473 5.24021 14 5.36739 14 5.5V12.5556C14 12.6734 13.9532 12.7865 13.8698 12.8698C13.7865 12.9532 13.6734 13 13.5556 13V13Z" stroke="#1F1F23" stroke-width="1.5" stroke-linecap="round" stroke-linejoin="round"/>
<path d="M6.14917 2.91782L8 5H2V3.25C2 3.11739 2.05268 2.99021 2.14645 2.89645C2.24021 2.80268 2.36739 2.75 2.5 2.75H5.77547C5.84608 2.75 5.91588 2.76495 5.9803 2.79388C6.04471 2.82281 6.10226 2.86504 6.14917 2.91782V2.91782Z" stroke="#1F1F23" stroke-width="1.5" stroke-linecap="round" stroke-linejoin="round"/>
</svg>
