<svg width="17" height="17" viewBox="0 0 17 17" fill="none" xmlns="http://www.w3.org/2000/svg">
<path d="M13.054 12.2034C13.1949 12.3443 13.2741 12.5354 13.2741 12.7346C13.2741 12.9339 13.1949 13.125 13.054 13.2659C12.9131 13.4068 12.722 13.4859 12.5228 13.4859C12.3235 13.4859 12.1324 13.4068 11.9915 13.2659L8.02341 9.2965L4.05404 13.2646C3.91314 13.4055 3.72204 13.4847 3.52279 13.4847C3.32353 13.4847 3.13243 13.4055 2.99154 13.2646C2.85064 13.1237 2.77148 12.9326 2.77148 12.7334C2.77148 12.5341 2.85064 12.343 2.99154 12.2021L6.96091 8.234L2.99279 4.26462C2.85189 4.12372 2.77273 3.93263 2.77273 3.73337C2.77273 3.53411 2.85189 3.34302 2.99279 3.20212C3.13368 3.06122 3.32478 2.98207 3.52404 2.98207C3.72329 2.98207 3.91439 3.06122 4.05529 3.20212L8.02341 7.1715L11.9928 3.2015C12.1337 3.0606 12.3248 2.98145 12.524 2.98145C12.7233 2.98145 12.9144 3.0606 13.0553 3.2015C13.1962 3.34239 13.2753 3.53349 13.2753 3.73275C13.2753 3.932 13.1962 4.1231 13.0553 4.264L9.08591 8.234L13.054 12.2034Z" fill="#1F1F23"/>
</svg>
