<svg width="118" height="32" viewBox="0 0 118 32" fill="none" xmlns="http://www.w3.org/2000/svg">
<path d="M43.5864 16.8377C44.1026 17.4364 44.3607 18.2255 44.3607 19.205C44.3607 20.4667 43.917 21.4416 43.0296 22.1298C42.1422 22.8179 40.8662 23.1586 39.2016 23.1517H33.0508V8.87212H38.3542C39.9237 8.87212 41.1382 9.20244 41.9978 9.86309C42.8573 10.5237 43.2877 11.4591 43.2888 12.6691C43.3058 13.3372 43.1341 13.9967 42.7929 14.5736C42.4707 15.0973 41.9743 15.4939 41.3888 15.6953V15.7556C42.3388 15.8794 43.0713 16.2402 43.5864 16.8377ZM40.3048 11.2979C39.8628 10.9642 39.161 10.7973 38.1994 10.7973H35.3215V14.8988H38.1907C39.1523 14.8988 39.8541 14.7325 40.2961 14.3999C40.738 14.0672 40.9578 13.5465 40.9555 12.8377C40.9555 12.145 40.7386 11.6317 40.3048 11.2979ZM41.3157 20.6846C41.7797 20.3405 42.0117 19.786 42.0117 19.0209C42.0117 18.2559 41.7797 17.6916 41.3157 17.328C40.8517 16.9736 40.0809 16.7964 39.0033 16.7964H35.3215V21.2059H38.9946C40.0675 21.2059 40.8384 21.0321 41.307 20.6846H41.3157Z" fill="white"/>
<path d="M55.4844 19.021H47.7241C47.8203 19.8801 48.1266 20.5298 48.6428 20.9702C49.159 21.4107 49.8434 21.632 50.696 21.6343C51.3015 21.6565 51.9021 21.5187 52.4359 21.2352C52.6455 21.1266 52.8311 20.9779 52.9819 20.7977C53.1328 20.6176 53.2459 20.4095 53.3146 20.1857H55.3782C55.1675 21.1158 54.6079 21.9323 53.8123 22.4705C52.9736 23.0692 51.9296 23.3685 50.6803 23.3685C49.7459 23.3882 48.822 23.1702 47.9972 22.7354C47.241 22.328 46.618 21.7156 46.2016 20.9702C45.7643 20.1725 45.5436 19.2762 45.5613 18.3689C45.546 17.4647 45.7665 16.5718 46.2016 15.7763C46.6161 15.0277 47.2346 14.409 47.9868 13.9905C48.7922 13.5519 49.7001 13.3306 50.6194 13.3487C51.5133 13.3332 52.396 13.5478 53.1806 13.9715C53.9177 14.3762 54.5216 14.9817 54.9206 15.716C55.3453 16.514 55.5584 17.4055 55.5401 18.307C55.5429 18.5462 55.5243 18.7851 55.4844 19.021ZM48.6828 15.6748C48.1956 16.0831 47.883 16.6887 47.7449 17.4915H53.3546C53.2317 16.6887 52.9359 16.0831 52.4673 15.6748C51.9986 15.2664 51.3798 15.0623 50.6107 15.0623C49.8149 15.0623 49.1723 15.2664 48.6828 15.6748Z" fill="white"/>
<path d="M67.0118 13.5723V23.1448H65.0508L64.9273 21.7151H64.8647C64.5644 22.2434 64.107 22.6675 63.5545 22.9297C62.9418 23.2285 62.2661 23.3789 61.5831 23.3684C60.7317 23.3774 59.8948 23.1497 59.168 22.7112C58.4413 22.2716 57.8466 21.6479 57.4454 20.9048C57.0315 20.1184 56.8154 19.245 56.8154 18.3586C56.8154 17.4721 57.0315 16.5987 57.4454 15.8123C57.8432 15.0668 58.4386 14.4423 59.168 14.0059C59.8962 13.5712 60.7324 13.3454 61.5831 13.3538C62.2661 13.3434 62.9418 13.4938 63.5545 13.7925C64.107 14.0548 64.5644 14.4789 64.8647 15.0072H64.9273L65.0508 13.5775L67.0118 13.5723ZM59.8292 20.5727C60.399 21.1345 61.1708 21.4499 61.9754 21.4499C62.7801 21.4499 63.5519 21.1345 64.1217 20.5727C64.6799 19.9662 64.9759 19.1678 64.9464 18.3482C64.9734 17.5353 64.6773 16.7442 64.1217 16.1444C63.5519 15.5826 62.7801 15.2672 61.9754 15.2672C61.1708 15.2672 60.399 15.5826 59.8292 16.1444C59.2723 16.7435 58.9755 17.5349 59.0027 18.3482C58.9729 19.1681 59.2697 19.9668 59.8292 20.5727V20.5727Z" fill="white"/>
<path d="M83.2336 14.4102C83.8809 15.1167 84.2045 16.0916 84.2045 17.3349V23.1517H82.0644V17.8786C82.0644 17.0218 81.8851 16.3755 81.5267 15.9397C81.1683 15.5038 80.6596 15.2865 80.0007 15.2876C79.6804 15.2775 79.3617 15.3361 79.0664 15.4594C78.7712 15.5826 78.5064 15.7676 78.2903 16.0016C77.8438 16.4787 77.6205 17.125 77.6205 17.9405V23.1448H75.4733V17.8786C75.4733 17.0218 75.2947 16.3755 74.9374 15.9397C74.7549 15.7225 74.5237 15.5505 74.2621 15.4372C74.0005 15.324 73.7157 15.2728 73.4306 15.2876C73.1096 15.2766 72.7901 15.3347 72.4941 15.458C72.1982 15.5813 71.9329 15.7668 71.7167 16.0016C71.2771 16.4787 71.0573 17.125 71.0573 17.9405V23.1448H68.9101V13.5724H70.8711L70.9946 15.0829H71.0764C71.3185 14.546 71.7275 14.0994 72.2439 13.8081C72.8132 13.5018 73.4519 13.3437 74.1 13.3489C74.748 13.354 75.3841 13.5221 75.9483 13.8373C76.491 14.1722 76.9162 14.6642 77.1663 15.2463H77.2272C77.5208 14.6569 77.9886 14.1697 78.5687 13.8493C79.1868 13.509 79.885 13.3363 80.5923 13.3487C81.7059 13.3487 82.5864 13.7025 83.2336 14.4102Z" fill="white"/>
<path d="M95.2882 19.021H87.5279C87.623 19.8801 87.9293 20.5298 88.4466 20.9703C88.964 21.4107 89.6484 21.632 90.4998 21.6343C91.1054 21.6565 91.706 21.5187 92.2398 21.2352C92.448 21.1261 92.6322 20.9772 92.7815 20.797C92.9309 20.6168 93.0425 20.409 93.1098 20.1857H95.1751C94.9644 21.1158 94.4047 21.9323 93.6091 22.4705C92.7705 23.0692 91.7265 23.3685 90.4772 23.3685C89.5468 23.3862 88.6274 23.1682 87.8063 22.7354C87.05 22.328 86.4271 21.7156 86.0106 20.9703C85.5733 20.1725 85.3527 19.2762 85.3703 18.369C85.3551 17.4647 85.5756 16.5718 86.0106 15.7763C86.4252 15.0277 87.0436 14.409 87.7959 13.9905C88.5977 13.554 89.5011 13.3327 90.4163 13.3487C91.3126 13.332 92.1978 13.5466 92.9845 13.9715C93.7215 14.3762 94.3255 14.9817 94.7245 15.7161C95.1486 16.5142 95.3611 17.4056 95.3422 18.307C95.3456 18.5461 95.3276 18.7851 95.2882 19.021ZM88.4884 15.6748C88.0012 16.0831 87.6886 16.6887 87.5505 17.4915H93.1637C93.0408 16.6887 92.745 16.0831 92.2763 15.6748C91.8077 15.2664 91.1877 15.0623 90.4163 15.0623C89.6205 15.0623 88.9779 15.2664 88.4884 15.6748Z" fill="white"/>
<path d="M102.77 13.5328V15.4855C102.456 15.4333 102.138 15.4063 101.82 15.4046C100.858 15.4046 100.119 15.7074 99.6016 16.313C99.0842 16.9186 98.8267 17.8402 98.8291 19.0777V23.1397H96.6802V13.5724H98.6411L98.7647 15.4098H98.8273C99.057 14.7953 99.4796 14.2696 100.033 13.9096C100.585 13.562 101.227 13.3825 101.881 13.3935C102.184 13.3845 102.485 13.4318 102.77 13.5328V13.5328Z" fill="white"/>
<path d="M114 13.5723L107.816 27.5526H105.518L107.642 22.8575L103.536 13.5672H105.827L108.737 20.5676H108.799L111.688 13.5672L114 13.5723Z" fill="white"/>
<path d="M9.24095 25.4795L12.5591 27.372V14.8937C12.5589 14.6059 12.4821 14.3232 12.3364 14.0741C12.1907 13.8249 11.9813 13.6181 11.7291 13.4744C11.4771 13.3303 11.1911 13.2543 10.8999 13.2542C10.6088 13.2541 10.3227 13.3297 10.0705 13.4736C9.81831 13.6175 9.60887 13.8244 9.46325 14.0737C9.31763 14.323 9.24096 14.6058 9.24095 14.8937V25.4795Z" fill="white"/>
<path d="M6.48644 10.4808C6.23429 10.3371 5.94833 10.2615 5.65728 10.2616C5.36623 10.2618 5.08036 10.3377 4.82837 10.4817C4.57639 10.6257 4.36719 10.8328 4.22178 11.0821C4.07637 11.3314 3.99988 11.6141 4 11.9019V20.5815C3.99948 21.1608 4.15347 21.73 4.44643 22.2317C4.73939 22.7334 5.16097 23.1499 5.66864 23.4391L7.31641 24.3802V11.9019C7.31617 11.6139 7.23937 11.331 7.0937 11.0816C6.94803 10.8321 6.73861 10.625 6.48644 10.4808Z" fill="white"/>
<path d="M26.1831 16.5023V12.7173L15.249 18.9539C14.9972 19.0983 14.7881 19.3055 14.6428 19.5549C14.4974 19.8043 14.4209 20.0871 14.4208 20.375C14.421 20.6626 14.4977 20.9451 14.6432 21.1942C14.7888 21.4432 14.998 21.65 15.2499 21.7938C15.5019 21.9377 15.7876 22.0134 16.0785 22.0135C16.3694 22.0136 16.6552 21.938 16.9072 21.7943L26.1831 16.5023Z" fill="white"/>
<path d="M14.4242 26.3586C14.4241 26.6464 14.5006 26.9291 14.646 27.1784C14.7914 27.4277 15.0006 27.6348 15.2526 27.7788C15.5046 27.9228 15.7905 27.9987 16.0815 27.9989C16.3726 27.999 16.6585 27.9234 16.9107 27.7797L24.5144 23.439C25.0215 23.1492 25.4426 22.7326 25.7354 22.231C26.0283 21.7294 26.1827 21.1606 26.183 20.5814V18.6993L15.249 24.9479C14.9992 25.0917 14.7917 25.2975 14.647 25.5449C14.5024 25.7923 14.4256 26.0728 14.4242 26.3586V26.3586Z" fill="white"/>
<path d="M9.85511 6.48418L6.5387 8.37665L17.4623 14.6253C17.7144 14.769 18.0004 14.8446 18.2914 14.8446C18.5824 14.8446 18.8684 14.769 19.1205 14.6253V14.6253C19.3727 14.4814 19.5822 14.2744 19.7278 14.0251C19.8735 13.7758 19.9501 13.4929 19.9501 13.205C19.9501 12.9171 19.8735 12.6343 19.7278 12.385C19.5822 12.1357 19.3727 11.9287 19.1205 11.7848L9.85511 6.48418Z" fill="white"/>
<path d="M24.3631 11.6232C24.6149 11.4792 24.824 11.2722 24.9693 11.0231C25.1147 10.774 25.1912 10.4914 25.1912 10.2038C25.1912 9.91619 25.1147 9.63363 24.9693 9.3845C24.824 9.13537 24.6149 8.92843 24.3631 8.78445L16.7593 4.4438C16.2525 4.15383 15.6772 4.00115 15.0916 4.00115C14.506 4.00115 13.9307 4.15383 13.4238 4.4438L11.7691 5.38488L22.6996 11.6232C22.9521 11.7687 23.2391 11.8454 23.5314 11.8454C23.8236 11.8454 24.1106 11.7687 24.3631 11.6232V11.6232Z" fill="white"/>
</svg>
