<svg width="338" height="836" viewBox="0 0 338 836" fill="none" xmlns="http://www.w3.org/2000/svg">
<g clip-path="url(#clip0_13980_79729)">
<rect width="338" height="836" rx="6" fill="white"/>
<path d="M92 588C92 581.373 97.3726 576 104 576H326C328.209 576 330 577.791 330 580V608C330 610.209 328.209 612 326 612H104C97.3726 612 92 606.627 92 600V588Z" fill="#492FF4"/>
<path d="M105.258 599V589.136H106.488V599H105.258ZM114.213 599L112.148 591.631H113.338L114.787 597.523H114.896L116.544 591.631H117.672L119.319 597.523H119.429L120.878 591.631H122.061L119.996 599H118.8L117.152 593.299H117.043L115.402 599H114.213ZM125.451 599.13C124.05 599.13 122.99 598.282 122.99 596.942V596.929C122.99 595.616 123.961 594.857 125.677 594.755L127.789 594.625V593.955C127.789 593.046 127.235 592.554 126.135 592.554C125.253 592.554 124.672 592.882 124.48 593.456L124.474 593.477H123.284L123.291 593.436C123.482 592.28 124.604 591.501 126.176 591.501C127.974 591.501 128.979 592.424 128.979 593.955V599H127.789V597.913H127.68C127.215 598.699 126.442 599.13 125.451 599.13ZM124.207 596.915C124.207 597.66 124.843 598.098 125.697 598.098C126.907 598.098 127.789 597.305 127.789 596.252V595.582L125.82 595.705C124.699 595.773 124.207 596.17 124.207 596.901V596.915ZM131.152 599V591.631H132.342V592.738H132.451C132.82 591.959 133.511 591.501 134.598 591.501C136.252 591.501 137.175 592.479 137.175 594.229V599H135.985V594.516C135.985 593.189 135.438 592.554 134.263 592.554C133.087 592.554 132.342 593.347 132.342 594.639V599H131.152ZM141.946 599.055C140.429 599.055 139.793 598.494 139.793 597.086V592.615H138.631V591.631H139.793V589.724H141.023V591.631H142.637V592.615H141.023V596.785C141.023 597.653 141.324 598.002 142.09 598.002C142.302 598.002 142.418 597.995 142.637 597.975V598.986C142.404 599.027 142.179 599.055 141.946 599.055ZM150.97 599.055C149.452 599.055 148.816 598.494 148.816 597.086V592.615H147.654V591.631H148.816V589.724H150.047V591.631H151.66V592.615H150.047V596.785C150.047 597.653 150.348 598.002 151.113 598.002C151.325 598.002 151.441 597.995 151.66 597.975V598.986C151.428 599.027 151.202 599.055 150.97 599.055ZM156.356 599.13C154.258 599.13 152.959 597.681 152.959 595.322V595.309C152.959 592.943 154.258 591.501 156.356 591.501C158.455 591.501 159.754 592.943 159.754 595.309V595.322C159.754 597.681 158.455 599.13 156.356 599.13ZM156.356 598.077C157.751 598.077 158.537 597.059 158.537 595.322V595.309C158.537 593.565 157.751 592.554 156.356 592.554C154.962 592.554 154.176 593.565 154.176 595.309V595.322C154.176 597.059 154.962 598.077 156.356 598.077ZM168.066 599.13C166.426 599.13 165.298 598.337 165.161 597.12H166.378C166.576 597.735 167.164 598.139 168.107 598.139C169.099 598.139 169.803 597.667 169.803 596.997V596.983C169.803 596.484 169.427 596.136 168.518 595.917L167.376 595.644C165.995 595.315 165.373 594.714 165.373 593.654V593.647C165.373 592.424 166.549 591.501 168.114 591.501C169.659 591.501 170.732 592.273 170.896 593.477H169.728C169.57 592.896 168.996 592.492 168.107 592.492C167.232 592.492 166.59 592.943 166.59 593.593V593.606C166.59 594.105 166.959 594.42 167.827 594.632L168.962 594.905C170.35 595.24 171.02 595.842 171.02 596.895V596.908C171.02 598.221 169.741 599.13 168.066 599.13ZM175.415 599.055C173.897 599.055 173.262 598.494 173.262 597.086V592.615H172.1V591.631H173.262V589.724H174.492V591.631H176.105V592.615H174.492V596.785C174.492 597.653 174.793 598.002 175.559 598.002C175.771 598.002 175.887 597.995 176.105 597.975V598.986C175.873 599.027 175.647 599.055 175.415 599.055ZM179.906 599.13C178.505 599.13 177.445 598.282 177.445 596.942V596.929C177.445 595.616 178.416 594.857 180.132 594.755L182.244 594.625V593.955C182.244 593.046 181.69 592.554 180.59 592.554C179.708 592.554 179.127 592.882 178.936 593.456L178.929 593.477H177.739L177.746 593.436C177.938 592.28 179.059 591.501 180.631 591.501C182.429 591.501 183.434 592.424 183.434 593.955V599H182.244V597.913H182.135C181.67 598.699 180.897 599.13 179.906 599.13ZM178.662 596.915C178.662 597.66 179.298 598.098 180.152 598.098C181.362 598.098 182.244 597.305 182.244 596.252V595.582L180.275 595.705C179.154 595.773 178.662 596.17 178.662 596.901V596.915ZM185.607 599V591.631H186.797V592.725H186.906C187.187 591.952 187.877 591.501 188.875 591.501C189.101 591.501 189.354 591.528 189.47 591.549V592.704C189.224 592.663 188.998 592.636 188.738 592.636C187.604 592.636 186.797 593.354 186.797 594.434V599H185.607ZM193.694 599.055C192.177 599.055 191.541 598.494 191.541 597.086V592.615H190.379V591.631H191.541V589.724H192.771V591.631H194.385V592.615H192.771V596.785C192.771 597.653 193.072 598.002 193.838 598.002C194.05 598.002 194.166 597.995 194.385 597.975V598.986C194.152 599.027 193.927 599.055 193.694 599.055ZM202.123 599.13C200.722 599.13 199.662 598.282 199.662 596.942V596.929C199.662 595.616 200.633 594.857 202.349 594.755L204.461 594.625V593.955C204.461 593.046 203.907 592.554 202.807 592.554C201.925 592.554 201.344 592.882 201.152 593.456L201.146 593.477H199.956L199.963 593.436C200.154 592.28 201.275 591.501 202.848 591.501C204.646 591.501 205.65 592.424 205.65 593.955V599H204.461V597.913H204.352C203.887 598.699 203.114 599.13 202.123 599.13ZM200.879 596.915C200.879 597.66 201.515 598.098 202.369 598.098C203.579 598.098 204.461 597.305 204.461 596.252V595.582L202.492 595.705C201.371 595.773 200.879 596.17 200.879 596.901V596.915ZM211.762 601.461V591.631H212.951V592.807H213.061C213.512 591.986 214.332 591.501 215.357 591.501C217.224 591.501 218.447 593.012 218.447 595.309V595.322C218.447 597.633 217.23 599.13 215.357 599.13C214.346 599.13 213.464 598.624 213.061 597.838H212.951V601.461H211.762ZM215.084 598.077C216.431 598.077 217.23 597.038 217.23 595.322V595.309C217.23 593.593 216.431 592.554 215.084 592.554C213.744 592.554 212.924 593.606 212.924 595.309V595.322C212.924 597.024 213.744 598.077 215.084 598.077ZM220.307 599V591.631H221.496V592.725H221.605C221.886 591.952 222.576 591.501 223.574 591.501C223.8 591.501 224.053 591.528 224.169 591.549V592.704C223.923 592.663 223.697 592.636 223.438 592.636C222.303 592.636 221.496 593.354 221.496 594.434V599H220.307ZM228.462 599.13C226.363 599.13 225.064 597.681 225.064 595.322V595.309C225.064 592.943 226.363 591.501 228.462 591.501C230.561 591.501 231.859 592.943 231.859 595.309V595.322C231.859 597.681 230.561 599.13 228.462 599.13ZM228.462 598.077C229.856 598.077 230.643 597.059 230.643 595.322V595.309C230.643 593.565 229.856 592.554 228.462 592.554C227.067 592.554 226.281 593.565 226.281 595.309V595.322C226.281 597.059 227.067 598.077 228.462 598.077ZM236.234 599.13C234.594 599.13 233.466 598.337 233.329 597.12H234.546C234.744 597.735 235.332 598.139 236.275 598.139C237.267 598.139 237.971 597.667 237.971 596.997V596.983C237.971 596.484 237.595 596.136 236.686 595.917L235.544 595.644C234.163 595.315 233.541 594.714 233.541 593.654V593.647C233.541 592.424 234.717 591.501 236.282 591.501C237.827 591.501 238.9 592.273 239.064 593.477H237.896C237.738 592.896 237.164 592.492 236.275 592.492C235.4 592.492 234.758 592.943 234.758 593.593V593.606C234.758 594.105 235.127 594.42 235.995 594.632L237.13 594.905C238.518 595.24 239.188 595.842 239.188 596.895V596.908C239.188 598.221 237.909 599.13 236.234 599.13ZM241.033 601.461V591.631H242.223V592.807H242.332C242.783 591.986 243.604 591.501 244.629 591.501C246.495 591.501 247.719 593.012 247.719 595.309V595.322C247.719 597.633 246.502 599.13 244.629 599.13C243.617 599.13 242.735 598.624 242.332 597.838H242.223V601.461H241.033ZM244.355 598.077C245.702 598.077 246.502 597.038 246.502 595.322V595.309C246.502 593.593 245.702 592.554 244.355 592.554C243.016 592.554 242.195 593.606 242.195 595.309V595.322C242.195 597.024 243.016 598.077 244.355 598.077ZM252.586 599.13C250.48 599.13 249.209 597.653 249.209 595.343V595.336C249.209 593.06 250.508 591.501 252.511 591.501C254.514 591.501 255.73 592.991 255.73 595.192V595.657H250.426C250.46 597.182 251.301 598.07 252.613 598.07C253.611 598.07 254.227 597.599 254.425 597.154L254.452 597.093H255.642L255.628 597.147C255.375 598.146 254.322 599.13 252.586 599.13ZM252.504 592.561C251.41 592.561 250.576 593.306 250.446 594.707H254.521C254.397 593.251 253.591 592.561 252.504 592.561ZM260.591 599.13C258.526 599.13 257.207 597.633 257.207 595.295V595.281C257.207 592.991 258.52 591.501 260.584 591.501C262.375 591.501 263.448 592.533 263.667 593.846L263.674 593.887H262.491L262.484 593.866C262.3 593.142 261.644 592.554 260.584 592.554C259.258 592.554 258.424 593.62 258.424 595.281V595.295C258.424 596.99 259.271 598.077 260.584 598.077C261.575 598.077 262.204 597.64 262.478 596.819L262.491 596.778L263.667 596.771L263.653 596.847C263.353 598.18 262.361 599.13 260.591 599.13ZM268.165 599.055C266.647 599.055 266.012 598.494 266.012 597.086V592.615H264.85V591.631H266.012V589.724H267.242V591.631H268.855V592.615H267.242V596.785C267.242 597.653 267.543 598.002 268.309 598.002C268.521 598.002 268.637 597.995 268.855 597.975V598.986C268.623 599.027 268.397 599.055 268.165 599.055ZM277.1 599.13C275.459 599.13 274.331 598.337 274.194 597.12H275.411C275.609 597.735 276.197 598.139 277.141 598.139C278.132 598.139 278.836 597.667 278.836 596.997V596.983C278.836 596.484 278.46 596.136 277.551 595.917L276.409 595.644C275.028 595.315 274.406 594.714 274.406 593.654V593.647C274.406 592.424 275.582 591.501 277.147 591.501C278.692 591.501 279.766 592.273 279.93 593.477H278.761C278.604 592.896 278.029 592.492 277.141 592.492C276.266 592.492 275.623 592.943 275.623 593.593V593.606C275.623 594.105 275.992 594.42 276.86 594.632L277.995 594.905C279.383 595.24 280.053 595.842 280.053 596.895V596.908C280.053 598.221 278.774 599.13 277.1 599.13ZM284.906 599.13C282.801 599.13 281.529 597.653 281.529 595.343V595.336C281.529 593.06 282.828 591.501 284.831 591.501C286.834 591.501 288.051 592.991 288.051 595.192V595.657H282.746C282.78 597.182 283.621 598.07 284.934 598.07C285.932 598.07 286.547 597.599 286.745 597.154L286.772 597.093H287.962L287.948 597.147C287.695 598.146 286.643 599.13 284.906 599.13ZM284.824 592.561C283.73 592.561 282.896 593.306 282.767 594.707H286.841C286.718 593.251 285.911 592.561 284.824 592.561ZM291.92 599.13C290.519 599.13 289.459 598.282 289.459 596.942V596.929C289.459 595.616 290.43 594.857 292.146 594.755L294.258 594.625V593.955C294.258 593.046 293.704 592.554 292.604 592.554C291.722 592.554 291.141 592.882 290.949 593.456L290.942 593.477H289.753L289.76 593.436C289.951 592.28 291.072 591.501 292.645 591.501C294.442 591.501 295.447 592.424 295.447 593.955V599H294.258V597.913H294.148C293.684 598.699 292.911 599.13 291.92 599.13ZM290.676 596.915C290.676 597.66 291.312 598.098 292.166 598.098C293.376 598.098 294.258 597.305 294.258 596.252V595.582L292.289 595.705C291.168 595.773 290.676 596.17 290.676 596.901V596.915ZM297.621 599V591.631H298.811V592.725H298.92C299.2 591.952 299.891 591.501 300.889 591.501C301.114 591.501 301.367 591.528 301.483 591.549V592.704C301.237 592.663 301.012 592.636 300.752 592.636C299.617 592.636 298.811 593.354 298.811 594.434V599H297.621ZM305.763 599.13C303.698 599.13 302.379 597.633 302.379 595.295V595.281C302.379 592.991 303.691 591.501 305.756 591.501C307.547 591.501 308.62 592.533 308.839 593.846L308.846 593.887H307.663L307.656 593.866C307.472 593.142 306.815 592.554 305.756 592.554C304.43 592.554 303.596 593.62 303.596 595.281V595.295C303.596 596.99 304.443 598.077 305.756 598.077C306.747 598.077 307.376 597.64 307.649 596.819L307.663 596.778L308.839 596.771L308.825 596.847C308.524 598.18 307.533 599.13 305.763 599.13ZM310.65 599V588.705H311.84V592.738H311.949C312.318 591.959 313.009 591.501 314.096 591.501C315.75 591.501 316.673 592.479 316.673 594.229V599H315.483V594.516C315.483 593.189 314.937 592.554 313.761 592.554C312.585 592.554 311.84 593.347 311.84 594.639V599H310.65Z" fill="#EBEBFE"/>
<path d="M16.4717 647L20.1084 637.136H21.3252L24.9619 647H23.6699L22.6787 644.177H18.7549L17.7637 647H16.4717ZM20.6621 638.729L19.1172 643.131H22.3164L20.7715 638.729H20.6621ZM26.8281 647V640.615H25.6045V639.631H26.8281V638.811C26.8281 637.341 27.5664 636.637 28.9678 636.637C29.2549 636.637 29.5146 636.657 29.7607 636.705V637.655C29.6172 637.628 29.4189 637.621 29.207 637.621C28.3594 637.621 28.0176 638.038 28.0176 638.845V639.631H29.6924V640.615H28.0176V647H26.8281ZM34.0264 647.055C32.5088 647.055 31.873 646.494 31.873 645.086V640.615H30.7109V639.631H31.873V637.724H33.1035V639.631H34.7168V640.615H33.1035V644.785C33.1035 645.653 33.4043 646.002 34.1699 646.002C34.3818 646.002 34.498 645.995 34.7168 645.975V646.986C34.4844 647.027 34.2588 647.055 34.0264 647.055ZM39.3926 647.13C37.2871 647.13 36.0156 645.653 36.0156 643.343V643.336C36.0156 641.06 37.3145 639.501 39.3174 639.501C41.3203 639.501 42.5371 640.991 42.5371 643.192V643.657H37.2324C37.2666 645.182 38.1074 646.07 39.4199 646.07C40.418 646.07 41.0332 645.599 41.2314 645.154L41.2588 645.093H42.4482L42.4346 645.147C42.1816 646.146 41.1289 647.13 39.3926 647.13ZM39.3105 640.561C38.2168 640.561 37.3828 641.306 37.2529 642.707H41.3271C41.2041 641.251 40.3975 640.561 39.3105 640.561ZM44.3828 647V639.631H45.5723V640.725H45.6816C45.9619 639.952 46.6523 639.501 47.6504 639.501C47.876 639.501 48.1289 639.528 48.2451 639.549V640.704C47.999 640.663 47.7734 640.636 47.5137 640.636C46.3789 640.636 45.5723 641.354 45.5723 642.434V647H44.3828ZM53.6523 647V639.631H54.8418V640.725H54.9512C55.2314 639.952 55.9219 639.501 56.9199 639.501C57.1455 639.501 57.3984 639.528 57.5146 639.549V640.704C57.2686 640.663 57.043 640.636 56.7832 640.636C55.6484 640.636 54.8418 641.354 54.8418 642.434V647H53.6523ZM61.7871 647.13C59.6816 647.13 58.4102 645.653 58.4102 643.343V643.336C58.4102 641.06 59.709 639.501 61.7119 639.501C63.7148 639.501 64.9316 640.991 64.9316 643.192V643.657H59.627C59.6611 645.182 60.502 646.07 61.8145 646.07C62.8125 646.07 63.4277 645.599 63.626 645.154L63.6533 645.093H64.8428L64.8291 645.147C64.5762 646.146 63.5234 647.13 61.7871 647.13ZM61.7051 640.561C60.6113 640.561 59.7773 641.306 59.6475 642.707H63.7217C63.5986 641.251 62.792 640.561 61.7051 640.561ZM68.7256 647L65.998 639.631H67.2559L69.2725 645.701H69.3818L71.3984 639.631H72.6562L69.9287 647H68.7256ZM74.8574 638.209C74.4062 638.209 74.0371 637.84 74.0371 637.389C74.0371 636.938 74.4062 636.568 74.8574 636.568C75.3086 636.568 75.6777 636.938 75.6777 637.389C75.6777 637.84 75.3086 638.209 74.8574 638.209ZM74.2559 647V639.631H75.4453V647H74.2559ZM80.6953 647.13C78.5898 647.13 77.3184 645.653 77.3184 643.343V643.336C77.3184 641.06 78.6172 639.501 80.6201 639.501C82.623 639.501 83.8398 640.991 83.8398 643.192V643.657H78.5352C78.5693 645.182 79.4102 646.07 80.7227 646.07C81.7207 646.07 82.3359 645.599 82.5342 645.154L82.5615 645.093H83.751L83.7373 645.147C83.4844 646.146 82.4316 647.13 80.6953 647.13ZM80.6133 640.561C79.5195 640.561 78.6855 641.306 78.5557 642.707H82.6299C82.5068 641.251 81.7002 640.561 80.6133 640.561ZM87.1074 647L85.043 639.631H86.2324L87.6816 645.523H87.791L89.4385 639.631H90.5664L92.2139 645.523H92.3232L93.7725 639.631H94.9551L92.8906 647H91.6943L90.0469 641.299H89.9375L88.2969 647H87.1074ZM97.1562 638.209C96.7051 638.209 96.3359 637.84 96.3359 637.389C96.3359 636.938 96.7051 636.568 97.1562 636.568C97.6074 636.568 97.9766 636.938 97.9766 637.389C97.9766 637.84 97.6074 638.209 97.1562 638.209ZM96.5547 647V639.631H97.7441V647H96.5547ZM99.9863 647V639.631H101.176V640.738H101.285C101.654 639.959 102.345 639.501 103.432 639.501C105.086 639.501 106.009 640.479 106.009 642.229V647H104.819V642.516C104.819 641.189 104.272 640.554 103.097 640.554C101.921 640.554 101.176 641.347 101.176 642.639V647H99.9863ZM111.197 649.598C109.42 649.598 108.285 648.798 108.101 647.588L108.114 647.581H109.345L109.352 647.588C109.481 648.148 110.138 648.545 111.197 648.545C112.517 648.545 113.303 647.923 113.303 646.836V645.346H113.193C112.729 646.159 111.895 646.617 110.883 646.617C108.976 646.617 107.793 645.141 107.793 643.076V643.062C107.793 640.998 108.982 639.501 110.91 639.501C111.949 639.501 112.756 640.014 113.207 640.848H113.289V639.631H114.479V646.897C114.479 648.545 113.207 649.598 111.197 649.598ZM111.143 645.564C112.51 645.564 113.33 644.539 113.33 643.076V643.062C113.33 641.6 112.503 640.554 111.143 640.554C109.775 640.554 109.01 641.6 109.01 643.062V643.076C109.01 644.539 109.775 645.564 111.143 645.564ZM116.393 649.509L116.987 645.619H118.348L117.274 649.509H116.393ZM124.855 647V636.705H126.045V647H124.855ZM131.336 647.13C129.23 647.13 127.959 645.653 127.959 643.343V643.336C127.959 641.06 129.258 639.501 131.261 639.501C133.264 639.501 134.48 640.991 134.48 643.192V643.657H129.176C129.21 645.182 130.051 646.07 131.363 646.07C132.361 646.07 132.977 645.599 133.175 645.154L133.202 645.093H134.392L134.378 645.147C134.125 646.146 133.072 647.13 131.336 647.13ZM131.254 640.561C130.16 640.561 129.326 641.306 129.196 642.707H133.271C133.147 641.251 132.341 640.561 131.254 640.561ZM138.944 647.055C137.427 647.055 136.791 646.494 136.791 645.086V640.615H135.629V639.631H136.791V637.724H138.021V639.631H139.635V640.615H138.021V644.785C138.021 645.653 138.322 646.002 139.088 646.002C139.3 646.002 139.416 645.995 139.635 645.975V646.986C139.402 647.027 139.177 647.055 138.944 647.055ZM145.35 647V639.631H146.539V640.752H146.648C146.977 639.959 147.674 639.501 148.638 639.501C149.636 639.501 150.333 640.027 150.675 640.793H150.784C151.181 640.014 152.021 639.501 153.04 639.501C154.544 639.501 155.385 640.362 155.385 641.907V647H154.195V642.181C154.195 641.094 153.696 640.554 152.657 640.554C151.632 640.554 150.955 641.326 150.955 642.263V647H149.766V641.996C149.766 641.121 149.164 640.554 148.234 640.554C147.271 640.554 146.539 641.395 146.539 642.434V647H145.35ZM160.539 647.13C158.434 647.13 157.162 645.653 157.162 643.343V643.336C157.162 641.06 158.461 639.501 160.464 639.501C162.467 639.501 163.684 640.991 163.684 643.192V643.657H158.379C158.413 645.182 159.254 646.07 160.566 646.07C161.564 646.07 162.18 645.599 162.378 645.154L162.405 645.093H163.595L163.581 645.147C163.328 646.146 162.275 647.13 160.539 647.13ZM160.457 640.561C159.363 640.561 158.529 641.306 158.399 642.707H162.474C162.351 641.251 161.544 640.561 160.457 640.561ZM169.535 647V636.705H170.725V642.851H170.834L174.02 639.631H175.462L172.249 642.728L175.674 647H174.177L171.415 643.534L170.725 644.204V647H169.535ZM177.068 647V639.631H178.258V640.738H178.367C178.736 639.959 179.427 639.501 180.514 639.501C182.168 639.501 183.091 640.479 183.091 642.229V647H181.901V642.516C181.901 641.189 181.354 640.554 180.179 640.554C179.003 640.554 178.258 641.347 178.258 642.639V647H177.068ZM188.272 647.13C186.174 647.13 184.875 645.681 184.875 643.322V643.309C184.875 640.943 186.174 639.501 188.272 639.501C190.371 639.501 191.67 640.943 191.67 643.309V643.322C191.67 645.681 190.371 647.13 188.272 647.13ZM188.272 646.077C189.667 646.077 190.453 645.059 190.453 643.322V643.309C190.453 641.565 189.667 640.554 188.272 640.554C186.878 640.554 186.092 641.565 186.092 643.309V643.322C186.092 645.059 186.878 646.077 188.272 646.077ZM194.664 647L192.6 639.631H193.789L195.238 645.523H195.348L196.995 639.631H198.123L199.771 645.523H199.88L201.329 639.631H202.512L200.447 647H199.251L197.604 641.299H197.494L195.854 647H194.664ZM208.65 638.209C208.199 638.209 207.83 637.84 207.83 637.389C207.83 636.938 208.199 636.568 208.65 636.568C209.102 636.568 209.471 636.938 209.471 637.389C209.471 637.84 209.102 638.209 208.65 638.209ZM208.049 647V639.631H209.238V647H208.049ZM211.973 647V640.615H210.749V639.631H211.973V638.811C211.973 637.341 212.711 636.637 214.112 636.637C214.399 636.637 214.659 636.657 214.905 636.705V637.655C214.762 637.628 214.563 637.621 214.352 637.621C213.504 637.621 213.162 638.038 213.162 638.845V639.631H214.837V640.615H213.162V647H211.973ZM221.119 649.584C220.962 649.584 220.757 649.57 220.593 649.543V648.565C220.736 648.593 220.921 648.6 221.085 648.6C221.762 648.6 222.172 648.292 222.438 647.444L222.575 647.007L219.848 639.631H221.119L223.143 645.694H223.252L225.269 639.631H226.52L223.642 647.451C223.033 649.105 222.425 649.584 221.119 649.584ZM230.847 647.13C228.748 647.13 227.449 645.681 227.449 643.322V643.309C227.449 640.943 228.748 639.501 230.847 639.501C232.945 639.501 234.244 640.943 234.244 643.309V643.322C234.244 645.681 232.945 647.13 230.847 647.13ZM230.847 646.077C232.241 646.077 233.027 645.059 233.027 643.322V643.309C233.027 641.565 232.241 640.554 230.847 640.554C229.452 640.554 228.666 641.565 228.666 643.309V643.322C228.666 645.059 229.452 646.077 230.847 646.077ZM238.558 647.13C236.883 647.13 236.021 646.146 236.021 644.402V639.631H237.211V644.115C237.211 645.441 237.689 646.077 238.865 646.077C240.164 646.077 240.854 645.284 240.854 643.992V639.631H242.044V647H240.854V645.899H240.745C240.383 646.686 239.638 647.13 238.558 647.13ZM249.625 647L247.561 639.631H248.75L250.199 645.523H250.309L251.956 639.631H253.084L254.731 645.523H254.841L256.29 639.631H257.473L255.408 647H254.212L252.564 641.299H252.455L250.814 647H249.625ZM261.8 647.13C259.701 647.13 258.402 645.681 258.402 643.322V643.309C258.402 640.943 259.701 639.501 261.8 639.501C263.898 639.501 265.197 640.943 265.197 643.309V643.322C265.197 645.681 263.898 647.13 261.8 647.13ZM261.8 646.077C263.194 646.077 263.98 645.059 263.98 643.322V643.309C263.98 641.565 263.194 640.554 261.8 640.554C260.405 640.554 259.619 641.565 259.619 643.309V643.322C259.619 645.059 260.405 646.077 261.8 646.077ZM269.511 647.13C267.836 647.13 266.975 646.146 266.975 644.402V639.631H268.164V644.115C268.164 645.441 268.643 646.077 269.818 646.077C271.117 646.077 271.808 645.284 271.808 643.992V639.631H272.997V647H271.808V645.899H271.698C271.336 646.686 270.591 647.13 269.511 647.13ZM275.287 647V636.705H276.477V647H275.287ZM281.48 647.13C279.614 647.13 278.391 645.619 278.391 643.322V643.309C278.391 640.998 279.607 639.501 281.48 639.501C282.492 639.501 283.374 640.007 283.777 640.793H283.887V636.705H285.076V647H283.887V645.824H283.777C283.326 646.645 282.506 647.13 281.48 647.13ZM281.754 646.077C283.094 646.077 283.914 645.024 283.914 643.322V643.309C283.914 641.606 283.094 640.554 281.754 640.554C280.407 640.554 279.607 641.593 279.607 643.309V643.322C279.607 645.038 280.407 646.077 281.754 646.077ZM17.1758 667V656.705H18.3652V667H17.1758ZM21.2773 658.209C20.8262 658.209 20.457 657.84 20.457 657.389C20.457 656.938 20.8262 656.568 21.2773 656.568C21.7285 656.568 22.0977 656.938 22.0977 657.389C22.0977 657.84 21.7285 658.209 21.2773 658.209ZM20.6758 667V659.631H21.8652V667H20.6758ZM24.1758 667V656.705H25.3652V662.851H25.4746L28.6602 659.631H30.1025L26.8896 662.728L30.3145 667H28.8174L26.0557 663.534L25.3652 664.204V667H24.1758ZM34.375 667.13C32.2695 667.13 30.998 665.653 30.998 663.343V663.336C30.998 661.06 32.2969 659.501 34.2998 659.501C36.3027 659.501 37.5195 660.991 37.5195 663.192V663.657H32.2148C32.249 665.182 33.0898 666.07 34.4023 666.07C35.4004 666.07 36.0156 665.599 36.2139 665.154L36.2412 665.093H37.4307L37.417 665.147C37.1641 666.146 36.1113 667.13 34.375 667.13ZM34.293 660.561C33.1992 660.561 32.3652 661.306 32.2354 662.707H36.3096C36.1865 661.251 35.3799 660.561 34.293 660.561ZM45.9209 667.055C44.4033 667.055 43.7676 666.494 43.7676 665.086V660.615H42.6055V659.631H43.7676V657.724H44.998V659.631H46.6113V660.615H44.998V664.785C44.998 665.653 45.2988 666.002 46.0645 666.002C46.2764 666.002 46.3926 665.995 46.6113 665.975V666.986C46.3789 667.027 46.1533 667.055 45.9209 667.055ZM51.3076 667.13C49.209 667.13 47.9102 665.681 47.9102 663.322V663.309C47.9102 660.943 49.209 659.501 51.3076 659.501C53.4062 659.501 54.7051 660.943 54.7051 663.309V663.322C54.7051 665.681 53.4062 667.13 51.3076 667.13ZM51.3076 666.077C52.7021 666.077 53.4883 665.059 53.4883 663.322V663.309C53.4883 661.565 52.7021 660.554 51.3076 660.554C49.9131 660.554 49.127 661.565 49.127 663.309V663.322C49.127 665.059 49.9131 666.077 51.3076 666.077ZM60.4883 667V659.631H61.6777V660.752H61.7871C62.1152 659.959 62.8125 659.501 63.7764 659.501C64.7744 659.501 65.4717 660.027 65.8135 660.793H65.9229C66.3193 660.014 67.1602 659.501 68.1787 659.501C69.6826 659.501 70.5234 660.362 70.5234 661.907V667H69.334V662.181C69.334 661.094 68.835 660.554 67.7959 660.554C66.7705 660.554 66.0938 661.326 66.0938 662.263V667H64.9043V661.996C64.9043 661.121 64.3027 660.554 63.373 660.554C62.4092 660.554 61.6777 661.395 61.6777 662.434V667H60.4883ZM74.6934 667.13C73.292 667.13 72.2324 666.282 72.2324 664.942V664.929C72.2324 663.616 73.2031 662.857 74.9189 662.755L77.0312 662.625V661.955C77.0312 661.046 76.4775 660.554 75.377 660.554C74.4951 660.554 73.9141 660.882 73.7227 661.456L73.7158 661.477H72.5264L72.5332 661.436C72.7246 660.28 73.8457 659.501 75.418 659.501C77.2158 659.501 78.2207 660.424 78.2207 661.955V667H77.0312V665.913H76.9219C76.457 666.699 75.6846 667.13 74.6934 667.13ZM73.4492 664.915C73.4492 665.66 74.085 666.098 74.9395 666.098C76.1494 666.098 77.0312 665.305 77.0312 664.252V663.582L75.0625 663.705C73.9414 663.773 73.4492 664.17 73.4492 664.901V664.915ZM80.4629 667V656.705H81.6523V662.851H81.7617L84.9473 659.631H86.3896L83.1768 662.728L86.6016 667H85.1045L82.3428 663.534L81.6523 664.204V667H80.4629ZM90.6621 667.13C88.5566 667.13 87.2852 665.653 87.2852 663.343V663.336C87.2852 661.06 88.584 659.501 90.5869 659.501C92.5898 659.501 93.8066 660.991 93.8066 663.192V663.657H88.502C88.5361 665.182 89.377 666.07 90.6895 666.07C91.6875 666.07 92.3027 665.599 92.501 665.154L92.5283 665.093H93.7178L93.7041 665.147C93.4512 666.146 92.3984 667.13 90.6621 667.13ZM90.5801 660.561C89.4863 660.561 88.6523 661.306 88.5225 662.707H92.5967C92.4736 661.251 91.667 660.561 90.5801 660.561ZM101.613 667.13C100.212 667.13 99.1523 666.282 99.1523 664.942V664.929C99.1523 663.616 100.123 662.857 101.839 662.755L103.951 662.625V661.955C103.951 661.046 103.397 660.554 102.297 660.554C101.415 660.554 100.834 660.882 100.643 661.456L100.636 661.477H99.4463L99.4531 661.436C99.6445 660.28 100.766 659.501 102.338 659.501C104.136 659.501 105.141 660.424 105.141 661.955V667H103.951V665.913H103.842C103.377 666.699 102.604 667.13 101.613 667.13ZM100.369 664.915C100.369 665.66 101.005 666.098 101.859 666.098C103.069 666.098 103.951 665.305 103.951 664.252V663.582L101.982 663.705C100.861 663.773 100.369 664.17 100.369 664.901V664.915ZM107.314 667V659.631H108.504V660.738H108.613C108.982 659.959 109.673 659.501 110.76 659.501C112.414 659.501 113.337 660.479 113.337 662.229V667H112.147V662.516C112.147 661.189 111.601 660.554 110.425 660.554C109.249 660.554 108.504 661.347 108.504 662.639V667H107.314ZM115.846 669.584C115.688 669.584 115.483 669.57 115.319 669.543V668.565C115.463 668.593 115.647 668.6 115.812 668.6C116.488 668.6 116.898 668.292 117.165 667.444L117.302 667.007L114.574 659.631H115.846L117.869 665.694H117.979L119.995 659.631H121.246L118.368 667.451C117.76 669.105 117.151 669.584 115.846 669.584ZM129.771 667.13C127.706 667.13 126.387 665.633 126.387 663.295V663.281C126.387 660.991 127.699 659.501 129.764 659.501C131.555 659.501 132.628 660.533 132.847 661.846L132.854 661.887H131.671L131.664 661.866C131.479 661.142 130.823 660.554 129.764 660.554C128.438 660.554 127.604 661.62 127.604 663.281V663.295C127.604 664.99 128.451 666.077 129.764 666.077C130.755 666.077 131.384 665.64 131.657 664.819L131.671 664.778L132.847 664.771L132.833 664.847C132.532 666.18 131.541 667.13 129.771 667.13ZM134.658 667V656.705H135.848V660.738H135.957C136.326 659.959 137.017 659.501 138.104 659.501C139.758 659.501 140.681 660.479 140.681 662.229V667H139.491V662.516C139.491 661.189 138.944 660.554 137.769 660.554C136.593 660.554 135.848 661.347 135.848 662.639V667H134.658ZM144.857 667.13C143.456 667.13 142.396 666.282 142.396 664.942V664.929C142.396 663.616 143.367 662.857 145.083 662.755L147.195 662.625V661.955C147.195 661.046 146.642 660.554 145.541 660.554C144.659 660.554 144.078 660.882 143.887 661.456L143.88 661.477H142.69L142.697 661.436C142.889 660.28 144.01 659.501 145.582 659.501C147.38 659.501 148.385 660.424 148.385 661.955V667H147.195V665.913H147.086C146.621 666.699 145.849 667.13 144.857 667.13ZM143.613 664.915C143.613 665.66 144.249 666.098 145.104 666.098C146.313 666.098 147.195 665.305 147.195 664.252V663.582L145.227 663.705C144.105 663.773 143.613 664.17 143.613 664.901V664.915ZM150.559 667V659.631H151.748V660.738H151.857C152.227 659.959 152.917 659.501 154.004 659.501C155.658 659.501 156.581 660.479 156.581 662.229V667H155.392V662.516C155.392 661.189 154.845 660.554 153.669 660.554C152.493 660.554 151.748 661.347 151.748 662.639V667H150.559ZM161.77 669.598C159.992 669.598 158.857 668.798 158.673 667.588L158.687 667.581H159.917L159.924 667.588C160.054 668.148 160.71 668.545 161.77 668.545C163.089 668.545 163.875 667.923 163.875 666.836V665.346H163.766C163.301 666.159 162.467 666.617 161.455 666.617C159.548 666.617 158.365 665.141 158.365 663.076V663.062C158.365 660.998 159.555 659.501 161.482 659.501C162.521 659.501 163.328 660.014 163.779 660.848H163.861V659.631H165.051V666.897C165.051 668.545 163.779 669.598 161.77 669.598ZM161.715 665.564C163.082 665.564 163.902 664.539 163.902 663.076V663.062C163.902 661.6 163.075 660.554 161.715 660.554C160.348 660.554 159.582 661.6 159.582 663.062V663.076C159.582 664.539 160.348 665.564 161.715 665.564ZM170.273 667.13C168.168 667.13 166.896 665.653 166.896 663.343V663.336C166.896 661.06 168.195 659.501 170.198 659.501C172.201 659.501 173.418 660.991 173.418 663.192V663.657H168.113C168.147 665.182 168.988 666.07 170.301 666.07C171.299 666.07 171.914 665.599 172.112 665.154L172.14 665.093H173.329L173.315 665.147C173.062 666.146 172.01 667.13 170.273 667.13ZM170.191 660.561C169.098 660.561 168.264 661.306 168.134 662.707H172.208C172.085 661.251 171.278 660.561 170.191 660.561ZM177.793 667.13C176.152 667.13 175.024 666.337 174.888 665.12H176.104C176.303 665.735 176.891 666.139 177.834 666.139C178.825 666.139 179.529 665.667 179.529 664.997V664.983C179.529 664.484 179.153 664.136 178.244 663.917L177.103 663.644C175.722 663.315 175.1 662.714 175.1 661.654V661.647C175.1 660.424 176.275 659.501 177.841 659.501C179.386 659.501 180.459 660.273 180.623 661.477H179.454C179.297 660.896 178.723 660.492 177.834 660.492C176.959 660.492 176.316 660.943 176.316 661.593V661.606C176.316 662.105 176.686 662.42 177.554 662.632L178.688 662.905C180.076 663.24 180.746 663.842 180.746 664.895V664.908C180.746 666.221 179.468 667.13 177.793 667.13ZM182.291 669.509L182.886 665.619H184.246L183.173 669.509H182.291ZM193.714 667.13C191.615 667.13 190.316 665.681 190.316 663.322V663.309C190.316 660.943 191.615 659.501 193.714 659.501C195.812 659.501 197.111 660.943 197.111 663.309V663.322C197.111 665.681 195.812 667.13 193.714 667.13ZM193.714 666.077C195.108 666.077 195.895 665.059 195.895 663.322V663.309C195.895 661.565 195.108 660.554 193.714 660.554C192.319 660.554 191.533 661.565 191.533 663.309V663.322C191.533 665.059 192.319 666.077 193.714 666.077ZM198.957 667V659.631H200.146V660.725H200.256C200.536 659.952 201.227 659.501 202.225 659.501C202.45 659.501 202.703 659.528 202.819 659.549V660.704C202.573 660.663 202.348 660.636 202.088 660.636C200.953 660.636 200.146 661.354 200.146 662.434V667H198.957ZM208.295 667V656.705H209.484V660.738H209.594C209.963 659.959 210.653 659.501 211.74 659.501C213.395 659.501 214.317 660.479 214.317 662.229V667H213.128V662.516C213.128 661.189 212.581 660.554 211.405 660.554C210.229 660.554 209.484 661.347 209.484 662.639V667H208.295ZM219.499 667.13C217.4 667.13 216.102 665.681 216.102 663.322V663.309C216.102 660.943 217.4 659.501 219.499 659.501C221.598 659.501 222.896 660.943 222.896 663.309V663.322C222.896 665.681 221.598 667.13 219.499 667.13ZM219.499 666.077C220.894 666.077 221.68 665.059 221.68 663.322V663.309C221.68 661.565 220.894 660.554 219.499 660.554C218.104 660.554 217.318 661.565 217.318 663.309V663.322C217.318 665.059 218.104 666.077 219.499 666.077ZM225.891 667L223.826 659.631H225.016L226.465 665.523H226.574L228.222 659.631H229.35L230.997 665.523H231.106L232.556 659.631H233.738L231.674 667H230.478L228.83 661.299H228.721L227.08 667H225.891ZM239.877 669.584C239.72 669.584 239.515 669.57 239.351 669.543V668.565C239.494 668.593 239.679 668.6 239.843 668.6C240.52 668.6 240.93 668.292 241.196 667.444L241.333 667.007L238.605 659.631H239.877L241.9 665.694H242.01L244.026 659.631H245.277L242.399 667.451C241.791 669.105 241.183 669.584 239.877 669.584ZM249.604 667.13C247.506 667.13 246.207 665.681 246.207 663.322V663.309C246.207 660.943 247.506 659.501 249.604 659.501C251.703 659.501 253.002 660.943 253.002 663.309V663.322C253.002 665.681 251.703 667.13 249.604 667.13ZM249.604 666.077C250.999 666.077 251.785 665.059 251.785 663.322V663.309C251.785 661.565 250.999 660.554 249.604 660.554C248.21 660.554 247.424 661.565 247.424 663.309V663.322C247.424 665.059 248.21 666.077 249.604 666.077ZM257.315 667.13C255.641 667.13 254.779 666.146 254.779 664.402V659.631H255.969V664.115C255.969 665.441 256.447 666.077 257.623 666.077C258.922 666.077 259.612 665.284 259.612 663.992V659.631H260.802V667H259.612V665.899H259.503C259.141 666.686 258.396 667.13 257.315 667.13ZM18.5293 687L16.4648 679.631H17.6543L19.1035 685.523H19.2129L20.8604 679.631H21.9883L23.6357 685.523H23.7451L25.1943 679.631H26.377L24.3125 687H23.1162L21.4688 681.299H21.3594L19.7188 687H18.5293ZM30.7041 687.13C28.6055 687.13 27.3066 685.681 27.3066 683.322V683.309C27.3066 680.943 28.6055 679.501 30.7041 679.501C32.8027 679.501 34.1016 680.943 34.1016 683.309V683.322C34.1016 685.681 32.8027 687.13 30.7041 687.13ZM30.7041 686.077C32.0986 686.077 32.8848 685.059 32.8848 683.322V683.309C32.8848 681.565 32.0986 680.554 30.7041 680.554C29.3096 680.554 28.5234 681.565 28.5234 683.309V683.322C28.5234 685.059 29.3096 686.077 30.7041 686.077ZM38.415 687.13C36.7402 687.13 35.8789 686.146 35.8789 684.402V679.631H37.0684V684.115C37.0684 685.441 37.5469 686.077 38.7227 686.077C40.0215 686.077 40.7119 685.284 40.7119 683.992V679.631H41.9014V687H40.7119V685.899H40.6025C40.2402 686.686 39.4951 687.13 38.415 687.13ZM44.1914 687V676.705H45.3809V687H44.1914ZM50.3848 687.13C48.5186 687.13 47.2949 685.619 47.2949 683.322V683.309C47.2949 680.998 48.5117 679.501 50.3848 679.501C51.3965 679.501 52.2783 680.007 52.6816 680.793H52.791V676.705H53.9805V687H52.791V685.824H52.6816C52.2305 686.645 51.4102 687.13 50.3848 687.13ZM50.6582 686.077C51.998 686.077 52.8184 685.024 52.8184 683.322V683.309C52.8184 681.606 51.998 680.554 50.6582 680.554C49.3115 680.554 48.5117 681.593 48.5117 683.309V683.322C48.5117 685.038 49.3115 686.077 50.6582 686.077ZM60.2695 687V676.705H61.459V687H60.2695ZM64.3711 678.209C63.9199 678.209 63.5508 677.84 63.5508 677.389C63.5508 676.938 63.9199 676.568 64.3711 676.568C64.8223 676.568 65.1914 676.938 65.1914 677.389C65.1914 677.84 64.8223 678.209 64.3711 678.209ZM63.7695 687V679.631H64.959V687H63.7695ZM67.2695 687V676.705H68.459V682.851H68.5684L71.7539 679.631H73.1963L69.9834 682.728L73.4082 687H71.9111L69.1494 683.534L68.459 684.204V687H67.2695ZM77.4688 687.13C75.3633 687.13 74.0918 685.653 74.0918 683.343V683.336C74.0918 681.06 75.3906 679.501 77.3936 679.501C79.3965 679.501 80.6133 680.991 80.6133 683.192V683.657H75.3086C75.3428 685.182 76.1836 686.07 77.4961 686.07C78.4941 686.07 79.1094 685.599 79.3076 685.154L79.335 685.093H80.5244L80.5107 685.147C80.2578 686.146 79.2051 687.13 77.4688 687.13ZM77.3867 680.561C76.293 680.561 75.459 681.306 75.3291 682.707H79.4033C79.2803 681.251 78.4736 680.561 77.3867 680.561ZM86.3965 687V679.631H87.5859V680.752H87.6953C88.0234 679.959 88.7207 679.501 89.6846 679.501C90.6826 679.501 91.3799 680.027 91.7217 680.793H91.8311C92.2275 680.014 93.0684 679.501 94.0869 679.501C95.5908 679.501 96.4316 680.362 96.4316 681.907V687H95.2422V682.181C95.2422 681.094 94.7432 680.554 93.7041 680.554C92.6787 680.554 92.002 681.326 92.002 682.263V687H90.8125V681.996C90.8125 681.121 90.2109 680.554 89.2812 680.554C88.3174 680.554 87.5859 681.395 87.5859 682.434V687H86.3965ZM101.586 687.13C99.4805 687.13 98.209 685.653 98.209 683.343V683.336C98.209 681.06 99.5078 679.501 101.511 679.501C103.514 679.501 104.73 680.991 104.73 683.192V683.657H99.4258C99.46 685.182 100.301 686.07 101.613 686.07C102.611 686.07 103.227 685.599 103.425 685.154L103.452 685.093H104.642L104.628 685.147C104.375 686.146 103.322 687.13 101.586 687.13ZM101.504 680.561C100.41 680.561 99.5762 681.306 99.4463 682.707H103.521C103.397 681.251 102.591 680.561 101.504 680.561ZM113.132 687.055C111.614 687.055 110.979 686.494 110.979 685.086V680.615H109.816V679.631H110.979V677.724H112.209V679.631H113.822V680.615H112.209V684.785C112.209 685.653 112.51 686.002 113.275 686.002C113.487 686.002 113.604 685.995 113.822 685.975V686.986C113.59 687.027 113.364 687.055 113.132 687.055ZM118.519 687.13C116.42 687.13 115.121 685.681 115.121 683.322V683.309C115.121 680.943 116.42 679.501 118.519 679.501C120.617 679.501 121.916 680.943 121.916 683.309V683.322C121.916 685.681 120.617 687.13 118.519 687.13ZM118.519 686.077C119.913 686.077 120.699 685.059 120.699 683.322V683.309C120.699 681.565 119.913 680.554 118.519 680.554C117.124 680.554 116.338 681.565 116.338 683.309V683.322C116.338 685.059 117.124 686.077 118.519 686.077ZM131.363 687.13C130.338 687.13 129.518 686.645 129.066 685.824H128.957V687H127.768V676.705H128.957V680.793H129.066C129.47 680.007 130.352 679.501 131.363 679.501C133.236 679.501 134.453 680.998 134.453 683.309V683.322C134.453 685.619 133.229 687.13 131.363 687.13ZM131.09 686.077C132.437 686.077 133.236 685.038 133.236 683.322V683.309C133.236 681.593 132.437 680.554 131.09 680.554C129.75 680.554 128.93 681.606 128.93 683.309V683.322C128.93 685.024 129.75 686.077 131.09 686.077ZM136.299 687V679.631H137.488V680.725H137.598C137.878 679.952 138.568 679.501 139.566 679.501C139.792 679.501 140.045 679.528 140.161 679.549V680.704C139.915 680.663 139.689 680.636 139.43 680.636C138.295 680.636 137.488 681.354 137.488 682.434V687H136.299ZM144.454 687.13C142.355 687.13 141.057 685.681 141.057 683.322V683.309C141.057 680.943 142.355 679.501 144.454 679.501C146.553 679.501 147.852 680.943 147.852 683.309V683.322C147.852 685.681 146.553 687.13 144.454 687.13ZM144.454 686.077C145.849 686.077 146.635 685.059 146.635 683.322V683.309C146.635 681.565 145.849 680.554 144.454 680.554C143.06 680.554 142.273 681.565 142.273 683.309V683.322C142.273 685.059 143.06 686.077 144.454 686.077ZM151.721 687.13C150.319 687.13 149.26 686.282 149.26 684.942V684.929C149.26 683.616 150.23 682.857 151.946 682.755L154.059 682.625V681.955C154.059 681.046 153.505 680.554 152.404 680.554C151.522 680.554 150.941 680.882 150.75 681.456L150.743 681.477H149.554L149.561 681.436C149.752 680.28 150.873 679.501 152.445 679.501C154.243 679.501 155.248 680.424 155.248 681.955V687H154.059V685.913H153.949C153.484 686.699 152.712 687.13 151.721 687.13ZM150.477 684.915C150.477 685.66 151.112 686.098 151.967 686.098C153.177 686.098 154.059 685.305 154.059 684.252V683.582L152.09 683.705C150.969 683.773 150.477 684.17 150.477 684.901V684.915ZM160.143 687.13C158.276 687.13 157.053 685.619 157.053 683.322V683.309C157.053 680.998 158.27 679.501 160.143 679.501C161.154 679.501 162.036 680.007 162.439 680.793H162.549V676.705H163.738V687H162.549V685.824H162.439C161.988 686.645 161.168 687.13 160.143 687.13ZM160.416 686.077C161.756 686.077 162.576 685.024 162.576 683.322V683.309C162.576 681.606 161.756 680.554 160.416 680.554C159.069 680.554 158.27 681.593 158.27 683.309V683.322C158.27 685.038 159.069 686.077 160.416 686.077ZM169.029 687.13C166.924 687.13 165.652 685.653 165.652 683.343V683.336C165.652 681.06 166.951 679.501 168.954 679.501C170.957 679.501 172.174 680.991 172.174 683.192V683.657H166.869C166.903 685.182 167.744 686.07 169.057 686.07C170.055 686.07 170.67 685.599 170.868 685.154L170.896 685.093H172.085L172.071 685.147C171.818 686.146 170.766 687.13 169.029 687.13ZM168.947 680.561C167.854 680.561 167.02 681.306 166.89 682.707H170.964C170.841 681.251 170.034 680.561 168.947 680.561ZM174.02 687V679.631H175.209V680.738H175.318C175.688 679.959 176.378 679.501 177.465 679.501C179.119 679.501 180.042 680.479 180.042 682.229V687H178.853V682.516C178.853 681.189 178.306 680.554 177.13 680.554C175.954 680.554 175.209 681.347 175.209 682.639V687H174.02ZM188.751 687.055C187.233 687.055 186.598 686.494 186.598 685.086V680.615H185.436V679.631H186.598V677.724H187.828V679.631H189.441V680.615H187.828V684.785C187.828 685.653 188.129 686.002 188.895 686.002C189.106 686.002 189.223 685.995 189.441 685.975V686.986C189.209 687.027 188.983 687.055 188.751 687.055ZM191.287 687V676.705H192.477V680.738H192.586C192.955 679.959 193.646 679.501 194.732 679.501C196.387 679.501 197.31 680.479 197.31 682.229V687H196.12V682.516C196.12 681.189 195.573 680.554 194.397 680.554C193.222 680.554 192.477 681.347 192.477 682.639V687H191.287ZM202.471 687.13C200.365 687.13 199.094 685.653 199.094 683.343V683.336C199.094 681.06 200.393 679.501 202.396 679.501C204.398 679.501 205.615 680.991 205.615 683.192V683.657H200.311C200.345 685.182 201.186 686.07 202.498 686.07C203.496 686.07 204.111 685.599 204.31 685.154L204.337 685.093H205.526L205.513 685.147C205.26 686.146 204.207 687.13 202.471 687.13ZM202.389 680.561C201.295 680.561 200.461 681.306 200.331 682.707H204.405C204.282 681.251 203.476 680.561 202.389 680.561ZM213.928 687.13C212.287 687.13 211.159 686.337 211.022 685.12H212.239C212.438 685.735 213.025 686.139 213.969 686.139C214.96 686.139 215.664 685.667 215.664 684.997V684.983C215.664 684.484 215.288 684.136 214.379 683.917L213.237 683.644C211.856 683.315 211.234 682.714 211.234 681.654V681.647C211.234 680.424 212.41 679.501 213.976 679.501C215.521 679.501 216.594 680.273 216.758 681.477H215.589C215.432 680.896 214.857 680.492 213.969 680.492C213.094 680.492 212.451 680.943 212.451 681.593V681.606C212.451 682.105 212.82 682.42 213.688 682.632L214.823 682.905C216.211 683.24 216.881 683.842 216.881 684.895V684.908C216.881 686.221 215.603 687.13 213.928 687.13ZM221.734 687.13C219.629 687.13 218.357 685.653 218.357 683.343V683.336C218.357 681.06 219.656 679.501 221.659 679.501C223.662 679.501 224.879 680.991 224.879 683.192V683.657H219.574C219.608 685.182 220.449 686.07 221.762 686.07C222.76 686.07 223.375 685.599 223.573 685.154L223.601 685.093H224.79L224.776 685.147C224.523 686.146 223.471 687.13 221.734 687.13ZM221.652 680.561C220.559 680.561 219.725 681.306 219.595 682.707H223.669C223.546 681.251 222.739 680.561 221.652 680.561ZM228.748 687.13C227.347 687.13 226.287 686.282 226.287 684.942V684.929C226.287 683.616 227.258 682.857 228.974 682.755L231.086 682.625V681.955C231.086 681.046 230.532 680.554 229.432 680.554C228.55 680.554 227.969 680.882 227.777 681.456L227.771 681.477H226.581L226.588 681.436C226.779 680.28 227.9 679.501 229.473 679.501C231.271 679.501 232.275 680.424 232.275 681.955V687H231.086V685.913H230.977C230.512 686.699 229.739 687.13 228.748 687.13ZM227.504 684.915C227.504 685.66 228.14 686.098 228.994 686.098C230.204 686.098 231.086 685.305 231.086 684.252V683.582L229.117 683.705C227.996 683.773 227.504 684.17 227.504 684.901V684.915ZM234.449 687V679.631H235.639V680.725H235.748C236.028 679.952 236.719 679.501 237.717 679.501C237.942 679.501 238.195 679.528 238.312 679.549V680.704C238.065 680.663 237.84 680.636 237.58 680.636C236.445 680.636 235.639 681.354 235.639 682.434V687H234.449ZM242.591 687.13C240.526 687.13 239.207 685.633 239.207 683.295V683.281C239.207 680.991 240.52 679.501 242.584 679.501C244.375 679.501 245.448 680.533 245.667 681.846L245.674 681.887H244.491L244.484 681.866C244.3 681.142 243.644 680.554 242.584 680.554C241.258 680.554 240.424 681.62 240.424 683.281V683.295C240.424 684.99 241.271 686.077 242.584 686.077C243.575 686.077 244.204 685.64 244.478 684.819L244.491 684.778L245.667 684.771L245.653 684.847C245.353 686.18 244.361 687.13 242.591 687.13ZM247.479 687V676.705H248.668V680.738H248.777C249.146 679.959 249.837 679.501 250.924 679.501C252.578 679.501 253.501 680.479 253.501 682.229V687H252.312V682.516C252.312 681.189 251.765 680.554 250.589 680.554C249.413 680.554 248.668 681.347 248.668 682.639V687H247.479ZM260.084 687V680.615H258.86V679.631H260.084V678.811C260.084 677.341 260.822 676.637 262.224 676.637C262.511 676.637 262.771 676.657 263.017 676.705V677.655C262.873 677.628 262.675 677.621 262.463 677.621C261.615 677.621 261.273 678.038 261.273 678.845V679.631H262.948V680.615H261.273V687H260.084ZM267.378 687.13C265.279 687.13 263.98 685.681 263.98 683.322V683.309C263.98 680.943 265.279 679.501 267.378 679.501C269.477 679.501 270.775 680.943 270.775 683.309V683.322C270.775 685.681 269.477 687.13 267.378 687.13ZM267.378 686.077C268.772 686.077 269.559 685.059 269.559 683.322V683.309C269.559 681.565 268.772 680.554 267.378 680.554C265.983 680.554 265.197 681.565 265.197 683.309V683.322C265.197 685.059 265.983 686.077 267.378 686.077ZM272.621 687V679.631H273.811V680.725H273.92C274.2 679.952 274.891 679.501 275.889 679.501C276.114 679.501 276.367 679.528 276.483 679.549V680.704C276.237 680.663 276.012 680.636 275.752 680.636C274.617 680.636 273.811 681.354 273.811 682.434V687H272.621ZM17.7363 709.584C17.5791 709.584 17.374 709.57 17.21 709.543V708.565C17.3535 708.593 17.5381 708.6 17.7021 708.6C18.3789 708.6 18.7891 708.292 19.0557 707.444L19.1924 707.007L16.4648 699.631H17.7363L19.7598 705.694H19.8691L21.8857 699.631H23.1367L20.2588 707.451C19.6504 709.105 19.042 709.584 17.7363 709.584ZM27.4639 707.13C25.3652 707.13 24.0664 705.681 24.0664 703.322V703.309C24.0664 700.943 25.3652 699.501 27.4639 699.501C29.5625 699.501 30.8613 700.943 30.8613 703.309V703.322C30.8613 705.681 29.5625 707.13 27.4639 707.13ZM27.4639 706.077C28.8584 706.077 29.6445 705.059 29.6445 703.322V703.309C29.6445 701.565 28.8584 700.554 27.4639 700.554C26.0693 700.554 25.2832 701.565 25.2832 703.309V703.322C25.2832 705.059 26.0693 706.077 27.4639 706.077ZM35.1748 707.13C33.5 707.13 32.6387 706.146 32.6387 704.402V699.631H33.8281V704.115C33.8281 705.441 34.3066 706.077 35.4824 706.077C36.7812 706.077 37.4717 705.284 37.4717 703.992V699.631H38.6611V707H37.4717V705.899H37.3623C37 706.686 36.2549 707.13 35.1748 707.13ZM41.8535 707.068C41.3682 707.068 40.9648 706.665 40.9648 706.18C40.9648 705.688 41.3682 705.291 41.8535 705.291C42.3457 705.291 42.7422 705.688 42.7422 706.18C42.7422 706.665 42.3457 707.068 41.8535 707.068Z" fill="#1F1F23"/>
<g opacity="0.5">
<g filter="url(#filter0_f_13980_79729)">
<rect width="120" height="116" rx="58" transform="matrix(-1 0 0 1 89.5 742.04)" fill="#67BFFF"/>
</g>
<g filter="url(#filter1_f_13980_79729)">
<rect x="62.5" y="742.04" width="120" height="116" rx="58" fill="#6767FF"/>
</g>
<g filter="url(#filter2_f_13980_79729)">
<rect x="155.5" y="742.04" width="120" height="116" rx="58" fill="#B241DE"/>
</g>
<g filter="url(#filter3_f_13980_79729)">
<rect x="248.5" y="742.04" width="120" height="116" rx="58" fill="#DA886D"/>
</g>
</g>
<g filter="url(#filter4_d_13980_79729)">
<rect x="8" y="728" width="322" height="100" rx="6" fill="white"/>
<rect x="8.75" y="728.75" width="320.5" height="98.5" rx="5.25" stroke="url(#paint0_linear_13980_79729)" stroke-width="1.5"/>
<path d="M25.2578 761.461V749.136H26.3652V761.461H25.2578Z" fill="#1F1F23"/>
<path d="M28.0947 759L31.7314 749.136H32.9482L36.585 759H35.293L34.3018 756.177H30.3779L29.3867 759H28.0947ZM32.2852 750.729L30.7402 755.131H33.9395L32.3945 750.729H32.2852ZM40.5566 759.13C38.916 759.13 37.7881 758.337 37.6514 757.12H38.8682C39.0664 757.735 39.6543 758.139 40.5977 758.139C41.5889 758.139 42.293 757.667 42.293 756.997V756.983C42.293 756.484 41.917 756.136 41.0078 755.917L39.8662 755.644C38.4854 755.315 37.8633 754.714 37.8633 753.654V753.647C37.8633 752.424 39.0391 751.501 40.6045 751.501C42.1494 751.501 43.2227 752.273 43.3867 753.477H42.2178C42.0605 752.896 41.4863 752.492 40.5977 752.492C39.7227 752.492 39.0801 752.943 39.0801 753.593V753.606C39.0801 754.105 39.4492 754.42 40.3174 754.632L41.4521 754.905C42.8398 755.24 43.5098 755.842 43.5098 756.895V756.908C43.5098 758.221 42.2314 759.13 40.5566 759.13ZM45.4238 759V748.705H46.6133V754.851H46.7227L49.9082 751.631H51.3506L48.1377 754.728L51.5625 759H50.0654L47.3037 755.534L46.6133 756.204V759H45.4238ZM57.0449 759V749.136H60.8115C62.7119 749.136 63.9561 750.298 63.9561 752.068V752.082C63.9561 753.449 63.2109 754.516 61.9736 754.905L64.2568 759H62.8145L60.7021 755.097H58.2754V759H57.0449ZM58.2754 754.003H60.7021C61.9668 754.003 62.6846 753.326 62.6846 752.123V752.109C62.6846 750.934 61.9189 750.229 60.6475 750.229H58.2754V754.003ZM68.0645 759.13C66.6631 759.13 65.6035 758.282 65.6035 756.942V756.929C65.6035 755.616 66.5742 754.857 68.29 754.755L70.4023 754.625V753.955C70.4023 753.046 69.8486 752.554 68.748 752.554C67.8662 752.554 67.2852 752.882 67.0938 753.456L67.0869 753.477H65.8975L65.9043 753.436C66.0957 752.28 67.2168 751.501 68.7891 751.501C70.5869 751.501 71.5918 752.424 71.5918 753.955V759H70.4023V757.913H70.293C69.8281 758.699 69.0557 759.13 68.0645 759.13ZM66.8203 756.915C66.8203 757.66 67.4561 758.098 68.3105 758.098C69.5205 758.098 70.4023 757.305 70.4023 756.252V755.582L68.4336 755.705C67.3125 755.773 66.8203 756.17 66.8203 756.901V756.915ZM74.1211 761.584C73.9639 761.584 73.7588 761.57 73.5947 761.543V760.565C73.7383 760.593 73.9229 760.6 74.0869 760.6C74.7637 760.6 75.1738 760.292 75.4404 759.444L75.5771 759.007L72.8496 751.631H74.1211L76.1445 757.694H76.2539L78.2705 751.631H79.5215L76.6436 759.451C76.0352 761.105 75.4268 761.584 74.1211 761.584ZM81.0391 759.068C80.5537 759.068 80.1504 758.665 80.1504 758.18C80.1504 757.688 80.5537 757.291 81.0391 757.291C81.5312 757.291 81.9277 757.688 81.9277 758.18C81.9277 758.665 81.5312 759.068 81.0391 759.068ZM85.1953 759.068C84.71 759.068 84.3066 758.665 84.3066 758.18C84.3066 757.688 84.71 757.291 85.1953 757.291C85.6875 757.291 86.084 757.688 86.084 758.18C86.084 758.665 85.6875 759.068 85.1953 759.068ZM89.3516 759.068C88.8662 759.068 88.4629 758.665 88.4629 758.18C88.4629 757.688 88.8662 757.291 89.3516 757.291C89.8438 757.291 90.2402 757.688 90.2402 758.18C90.2402 758.665 89.8438 759.068 89.3516 759.068Z" fill="#6C6C7A"/>
<g filter="url(#filter5_d_13980_79729)">
<path d="M290 794C290 790.686 292.686 788 296 788H316C319.314 788 322 790.686 322 794V814C322 817.314 319.314 820 316 820H296C292.686 820 290 817.314 290 814V794Z" fill="#492FF4"/>
<path d="M312.384 797.616C312.227 797.459 312.031 797.347 311.816 797.291C311.601 797.234 311.374 797.237 311.161 797.297L311.147 797.301L299.152 800.938C298.909 801.008 298.692 801.151 298.532 801.348C298.372 801.544 298.275 801.785 298.255 802.038C298.234 802.291 298.291 802.544 298.418 802.763C298.545 802.983 298.736 803.159 298.965 803.268L304.235 805.768L306.735 811.038C306.835 811.252 306.994 811.433 307.193 811.559C307.392 811.686 307.624 811.753 307.86 811.753C307.896 811.753 307.932 811.753 307.968 811.748C308.221 811.728 308.461 811.631 308.657 811.47C308.853 811.309 308.994 811.092 309.062 810.848L312.699 798.853C312.701 798.849 312.702 798.844 312.703 798.839C312.763 798.626 312.766 798.399 312.709 798.184C312.653 797.969 312.541 797.773 312.384 797.616ZM307.812 809.808L305.705 805.358L308.533 802.53C308.674 802.389 308.753 802.198 308.753 801.999C308.753 801.799 308.674 801.608 308.533 801.468C308.392 801.327 308.201 801.247 308.002 801.247C307.803 801.247 307.612 801.327 307.471 801.468L304.642 804.296L300.192 802.188L311.125 798.875L307.812 809.808Z" fill="#EBEBFE"/>
</g>
</g>
<rect width="338" height="90.9854" fill="url(#paint1_linear_13980_79729)"/>
<path d="M37.6909 29.0082L35.3087 25.7949H33.436V29.0082H31.9214V19.3127H35.7631C38.0076 19.3127 39.3019 20.5316 39.3019 22.5538C39.3019 24.202 38.4482 25.3101 36.9197 25.6702L39.4396 29.0082H37.6909ZM33.436 24.3821H35.653C37.0575 24.3821 37.7322 23.7865 37.7322 22.5538C37.7322 21.3211 37.0575 20.7255 35.653 20.7255H33.436V24.3821ZM42.9246 29.1606C41.1345 29.1606 39.7438 27.6925 39.7438 25.7533C39.7438 23.8281 41.1345 22.3599 42.9246 22.3599C43.8746 22.3599 44.7284 22.7616 45.114 23.4818H45.1553L45.2379 22.5122H46.546V29.0082H45.2379L45.1553 28.0386H45.114C44.7284 28.759 43.8746 29.1606 42.9246 29.1606ZM41.2033 25.7533C41.2033 26.9445 41.9882 27.8586 43.1862 27.8586C44.3841 27.8586 45.169 26.9445 45.169 25.7533C45.169 24.5621 44.3841 23.6618 43.1862 23.6618C41.9882 23.6618 41.2033 24.5621 41.2033 25.7533ZM48.3406 32L49.7588 28.8143L47.0186 22.5122H48.5471L50.4887 27.2631H50.53L52.4577 22.5122H54L49.869 32H48.3406Z" fill="#1F1F23"/>
<path d="M19.2314 26.7905L19.2393 30.646C19.2393 30.8198 19.1915 30.994 19.1045 31.144C19.0175 31.2939 18.8992 31.4205 18.749 31.5073C18.5988 31.5941 18.4327 31.641 18.2588 31.6411C18.0847 31.6411 17.9179 31.5942 17.7676 31.5073C17.6174 31.4205 17.4991 31.2939 17.4121 31.144C17.3251 30.994 17.2773 30.8198 17.2773 30.646V25.6372L19.2314 26.7905ZM25.5693 27.6597C25.7196 27.7465 25.8466 27.8729 25.9336 28.0229C26.0206 28.173 26.0674 28.3394 26.0674 28.5132C26.0674 28.6868 26.0282 28.8525 25.9414 29.0024C25.8544 29.1525 25.7274 29.271 25.5771 29.3579C25.4269 29.4448 25.253 29.4848 25.0791 29.4849C24.905 29.4849 24.7304 29.437 24.5801 29.3501L20.2363 26.8462L22.2148 25.7329L25.5693 27.6597ZM16.8262 24.7534L13.4873 26.6802C13.337 26.767 13.1632 26.8149 12.9893 26.8149C12.8152 26.8149 12.6406 26.7749 12.4902 26.688C12.3401 26.6011 12.2139 26.4824 12.1269 26.3325C12.04 26.1825 12 26.0169 12 25.8433C12 25.6695 12.0477 25.5031 12.1348 25.353C12.2218 25.2031 12.3488 25.0766 12.499 24.9897L16.8428 22.4858L16.8262 24.7534ZM26.6133 20.5581C26.7873 20.5581 26.962 20.5982 27.1123 20.6851C27.2625 20.7719 27.3896 20.8905 27.4766 21.0405C27.5634 21.1905 27.6025 21.3562 27.6025 21.5298C27.6025 21.7036 27.5548 21.8699 27.4678 22.02C27.3808 22.1699 27.2546 22.2965 27.1045 22.3833L22.7607 24.895L22.7764 22.6284L26.1152 20.6929C26.2654 20.606 26.4393 20.5582 26.6133 20.5581ZM21.3447 15.7241C21.5187 15.7242 21.6847 15.7711 21.835 15.8579C21.9853 15.9448 22.1044 16.0711 22.1914 16.2212C22.2784 16.3713 22.3252 16.5455 22.3252 16.7192V21.7271L20.3711 20.5815L20.3633 16.7192C20.3633 16.5454 20.411 16.3713 20.498 16.2212C20.585 16.0713 20.7034 15.9448 20.8535 15.8579C21.0038 15.771 21.1707 15.7241 21.3447 15.7241ZM14.5244 17.8882C14.6983 17.8883 14.8722 17.9361 15.0225 18.0229L19.3662 20.5269L17.3877 21.6401L14.0332 19.7134C13.8831 19.6266 13.7569 19.5 13.6699 19.3501C13.5829 19.2 13.5351 19.0336 13.5351 18.8599C13.5352 18.6861 13.5741 18.5197 13.6611 18.3696C13.7482 18.2196 13.8751 18.101 14.0254 18.0142C14.1757 17.9273 14.3504 17.8882 14.5244 17.8882Z" fill="#1F1F23"/>
<path d="M298 14C298 10.6863 300.686 8 304 8H324C327.314 8 330 10.6863 330 14V34C330 37.3137 327.314 40 324 40H304C300.686 40 298 37.3137 298 34V14Z" fill="#F1F1F3"/>
<path d="M314.75 21V23.5756L316.886 24.8569C316.972 24.9066 317.048 24.9729 317.108 25.0522C317.168 25.1314 317.212 25.2219 317.238 25.3183C317.263 25.4147 317.268 25.5152 317.254 25.6138C317.24 25.7124 317.206 25.8072 317.155 25.8927C317.104 25.9781 317.036 26.0525 316.956 26.1115C316.875 26.1704 316.784 26.2128 316.687 26.2361C316.59 26.2595 316.49 26.2632 316.391 26.2473C316.293 26.2313 316.199 26.1959 316.114 26.1431L313.614 24.6431C313.503 24.5765 313.411 24.4823 313.347 24.3696C313.284 24.2569 313.25 24.1295 313.25 24V21C313.25 20.8011 313.329 20.6103 313.47 20.4697C313.61 20.329 313.801 20.25 314 20.25C314.199 20.25 314.39 20.329 314.53 20.4697C314.671 20.6103 314.75 20.8011 314.75 21ZM314 17.75C313.178 17.7479 312.364 17.9089 311.605 18.2236C310.846 18.5384 310.157 19.0007 309.578 19.5837C309.284 19.88 309.015 20.1694 308.75 20.4587V20C308.75 19.8011 308.671 19.6103 308.53 19.4697C308.39 19.329 308.199 19.25 308 19.25C307.801 19.25 307.61 19.329 307.47 19.4697C307.329 19.6103 307.25 19.8011 307.25 20V22.5C307.25 22.6989 307.329 22.8897 307.47 23.0303C307.61 23.171 307.801 23.25 308 23.25H310.5C310.699 23.25 310.89 23.171 311.03 23.0303C311.171 22.8897 311.25 22.6989 311.25 22.5C311.25 22.3011 311.171 22.1103 311.03 21.9697C310.89 21.829 310.699 21.75 310.5 21.75H309.611C309.938 21.375 310.273 21.0137 310.641 20.6412C311.301 19.981 312.141 19.5298 313.056 19.3443C313.971 19.1587 314.921 19.2469 315.786 19.5979C316.651 19.9489 317.394 20.547 317.921 21.3176C318.448 22.0882 318.736 22.9971 318.75 23.9307C318.764 24.8642 318.502 25.7811 317.997 26.5666C317.492 27.3522 316.768 27.9716 315.913 28.3475C315.058 28.7234 314.112 28.8391 313.192 28.6802C312.272 28.5212 311.419 28.0946 310.74 27.4537C310.595 27.3172 310.402 27.2437 310.203 27.2494C310.004 27.2551 309.816 27.3397 309.679 27.4844C309.543 27.6291 309.469 27.8221 309.475 28.021C309.481 28.2199 309.565 28.4084 309.71 28.545C310.452 29.2453 311.354 29.7533 312.337 30.0247C313.321 30.2962 314.356 30.3227 315.352 30.1021C316.348 29.8815 317.275 29.4204 318.052 28.759C318.828 28.0977 319.432 27.2563 319.808 26.3082C320.185 25.3601 320.324 24.3342 320.213 23.3201C320.102 22.3059 319.745 21.3344 319.172 20.4902C318.599 19.6461 317.828 18.955 316.926 18.4773C316.025 17.9997 315.02 17.75 314 17.75Z" fill="#1F1F23"/>
</g>
<defs>
<filter id="filter0_f_13980_79729" x="-190.5" y="582.04" width="440" height="436" filterUnits="userSpaceOnUse" color-interpolation-filters="sRGB">
<feFlood flood-opacity="0" result="BackgroundImageFix"/>
<feBlend mode="normal" in="SourceGraphic" in2="BackgroundImageFix" result="shape"/>
<feGaussianBlur stdDeviation="80" result="effect1_foregroundBlur_13980_79729"/>
</filter>
<filter id="filter1_f_13980_79729" x="-97.5" y="582.04" width="440" height="436" filterUnits="userSpaceOnUse" color-interpolation-filters="sRGB">
<feFlood flood-opacity="0" result="BackgroundImageFix"/>
<feBlend mode="normal" in="SourceGraphic" in2="BackgroundImageFix" result="shape"/>
<feGaussianBlur stdDeviation="80" result="effect1_foregroundBlur_13980_79729"/>
</filter>
<filter id="filter2_f_13980_79729" x="-22.6" y="563.94" width="476.2" height="472.2" filterUnits="userSpaceOnUse" color-interpolation-filters="sRGB">
<feFlood flood-opacity="0" result="BackgroundImageFix"/>
<feBlend mode="normal" in="SourceGraphic" in2="BackgroundImageFix" result="shape"/>
<feGaussianBlur stdDeviation="89.05" result="effect1_foregroundBlur_13980_79729"/>
</filter>
<filter id="filter3_f_13980_79729" x="157.5" y="651.04" width="302" height="298" filterUnits="userSpaceOnUse" color-interpolation-filters="sRGB">
<feFlood flood-opacity="0" result="BackgroundImageFix"/>
<feBlend mode="normal" in="SourceGraphic" in2="BackgroundImageFix" result="shape"/>
<feGaussianBlur stdDeviation="45.5" result="effect1_foregroundBlur_13980_79729"/>
</filter>
<filter id="filter4_d_13980_79729" x="-8" y="720" width="354" height="132" filterUnits="userSpaceOnUse" color-interpolation-filters="sRGB">
<feFlood flood-opacity="0" result="BackgroundImageFix"/>
<feColorMatrix in="SourceAlpha" type="matrix" values="0 0 0 0 0 0 0 0 0 0 0 0 0 0 0 0 0 0 127 0" result="hardAlpha"/>
<feOffset dy="8"/>
<feGaussianBlur stdDeviation="8"/>
<feColorMatrix type="matrix" values="0 0 0 0 0.121569 0 0 0 0 0.121569 0 0 0 0 0.137255 0 0 0 0.12 0"/>
<feBlend mode="normal" in2="BackgroundImageFix" result="effect1_dropShadow_13980_79729"/>
<feBlend mode="normal" in="SourceGraphic" in2="effect1_dropShadow_13980_79729" result="shape"/>
</filter>
<filter id="filter5_d_13980_79729" x="278" y="780" width="56" height="56" filterUnits="userSpaceOnUse" color-interpolation-filters="sRGB">
<feFlood flood-opacity="0" result="BackgroundImageFix"/>
<feColorMatrix in="SourceAlpha" type="matrix" values="0 0 0 0 0 0 0 0 0 0 0 0 0 0 0 0 0 0 127 0" result="hardAlpha"/>
<feOffset dy="4"/>
<feGaussianBlur stdDeviation="6"/>
<feColorMatrix type="matrix" values="0 0 0 0 0.286275 0 0 0 0 0.184314 0 0 0 0 0.956863 0 0 0 0.2 0"/>
<feBlend mode="normal" in2="BackgroundImageFix" result="effect1_dropShadow_13980_79729"/>
<feBlend mode="normal" in="SourceGraphic" in2="effect1_dropShadow_13980_79729" result="shape"/>
</filter>
<linearGradient id="paint0_linear_13980_79729" x1="330" y1="778" x2="8" y2="778" gradientUnits="userSpaceOnUse">
<stop stop-color="#DA886D"/>
<stop offset="0.33" stop-color="#B141DE"/>
<stop offset="0.66" stop-color="#6767FF"/>
<stop offset="1" stop-color="#67BFFF"/>
</linearGradient>
<linearGradient id="paint1_linear_13980_79729" x1="177.651" y1="0" x2="177.651" y2="90.9854" gradientUnits="userSpaceOnUse">
<stop stop-color="white"/>
<stop offset="0.519231" stop-color="white"/>
<stop offset="1" stop-color="white" stop-opacity="0"/>
</linearGradient>
<clipPath id="clip0_13980_79729">
<rect width="338" height="836" rx="6" fill="white"/>
</clipPath>
</defs>
</svg>
