<svg width="1440" height="48" viewBox="0 0 1440 48" fill="none" xmlns="http://www.w3.org/2000/svg">
<rect width="1440" height="48" fill="#150E3F"/>
<path d="M51.5864 24.8377C52.1026 25.4364 52.3607 26.2255 52.3607 27.205C52.3607 28.4667 51.917 29.4416 51.0296 30.1298C50.1422 30.8179 48.8662 31.1586 47.2016 31.1517H41.0508V16.8721H46.3542C47.9237 16.8721 49.1382 17.2024 49.9978 17.8631C50.8573 18.5237 51.2877 19.4591 51.2888 20.6691C51.3058 21.3372 51.1341 21.9967 50.7929 22.5736C50.4707 23.0973 49.9743 23.4939 49.3888 23.6953V23.7556C50.3388 23.8794 51.0713 24.2402 51.5864 24.8377ZM48.3048 19.2979C47.8628 18.9642 47.161 18.7973 46.1994 18.7973H43.3215V22.8988H46.1907C47.1523 22.8988 47.8541 22.7325 48.2961 22.3999C48.738 22.0672 48.9578 21.5465 48.9555 20.8377C48.9555 20.145 48.7386 19.6317 48.3048 19.2979ZM49.3157 28.6846C49.7797 28.3405 50.0117 27.786 50.0117 27.0209C50.0117 26.2559 49.7797 25.6916 49.3157 25.328C48.8517 24.9736 48.0809 24.7964 47.0033 24.7964H43.3215V29.2059H46.9946C48.0675 29.2059 48.8384 29.0321 49.307 28.6846H49.3157Z" fill="white"/>
<path d="M63.4844 27.021H55.7241C55.8203 27.8801 56.1266 28.5298 56.6428 28.9702C57.159 29.4107 57.8434 29.632 58.696 29.6343C59.3015 29.6565 59.9021 29.5187 60.4359 29.2352C60.6455 29.1266 60.8311 28.9779 60.9819 28.7977C61.1328 28.6176 61.2459 28.4095 61.3146 28.1857H63.3782C63.1675 29.1158 62.6079 29.9323 61.8123 30.4705C60.9736 31.0692 59.9296 31.3685 58.6803 31.3685C57.7459 31.3882 56.822 31.1702 55.9972 30.7354C55.241 30.328 54.618 29.7156 54.2016 28.9702C53.7643 28.1725 53.5436 27.2762 53.5613 26.3689C53.546 25.4647 53.7665 24.5718 54.2016 23.7763C54.6161 23.0277 55.2346 22.409 55.9868 21.9905C56.7922 21.5519 57.7001 21.3306 58.6194 21.3487C59.5133 21.3332 60.396 21.5478 61.1806 21.9715C61.9177 22.3762 62.5216 22.9817 62.9206 23.716C63.3453 24.514 63.5584 25.4055 63.5401 26.307C63.5429 26.5462 63.5243 26.7851 63.4844 27.021ZM56.6828 23.6748C56.1956 24.0831 55.883 24.6887 55.7449 25.4915H61.3546C61.2317 24.6887 60.9359 24.0831 60.4673 23.6748C59.9986 23.2664 59.3798 23.0623 58.6107 23.0623C57.8149 23.0623 57.1723 23.2664 56.6828 23.6748Z" fill="white"/>
<path d="M75.0118 21.5723V31.1448H73.0508L72.9273 29.7151H72.8647C72.5644 30.2434 72.107 30.6675 71.5545 30.9297C70.9418 31.2285 70.2661 31.3789 69.5831 31.3684C68.7317 31.3774 67.8948 31.1497 67.168 30.7112C66.4413 30.2716 65.8466 29.6479 65.4454 28.9048C65.0315 28.1184 64.8154 27.245 64.8154 26.3586C64.8154 25.4721 65.0315 24.5987 65.4454 23.8123C65.8432 23.0668 66.4386 22.4423 67.168 22.0059C67.8962 21.5712 68.7324 21.3454 69.5831 21.3538C70.2661 21.3434 70.9418 21.4938 71.5545 21.7925C72.107 22.0548 72.5644 22.4789 72.8647 23.0072H72.9273L73.0508 21.5775L75.0118 21.5723ZM67.8292 28.5727C68.399 29.1345 69.1708 29.4499 69.9754 29.4499C70.7801 29.4499 71.5519 29.1345 72.1217 28.5727C72.6799 27.9662 72.9759 27.1678 72.9464 26.3482C72.9734 25.5353 72.6773 24.7442 72.1217 24.1444C71.5519 23.5826 70.7801 23.2672 69.9754 23.2672C69.1708 23.2672 68.399 23.5826 67.8292 24.1444C67.2723 24.7435 66.9755 25.5349 67.0027 26.3482C66.9729 27.1681 67.2697 27.9668 67.8292 28.5727V28.5727Z" fill="white"/>
<path d="M91.2336 22.4102C91.8809 23.1167 92.2045 24.0916 92.2045 25.3349V31.1517H90.0644V25.8786C90.0644 25.0218 89.8851 24.3755 89.5267 23.9397C89.1683 23.5038 88.6596 23.2865 88.0007 23.2876C87.6804 23.2775 87.3617 23.3361 87.0664 23.4594C86.7712 23.5826 86.5064 23.7676 86.2903 24.0016C85.8438 24.4787 85.6205 25.125 85.6205 25.9405V31.1448H83.4733V25.8786C83.4733 25.0218 83.2947 24.3755 82.9374 23.9397C82.7549 23.7225 82.5237 23.5505 82.2621 23.4372C82.0005 23.324 81.7157 23.2728 81.4306 23.2876C81.1096 23.2766 80.7901 23.3347 80.4941 23.458C80.1982 23.5813 79.9329 23.7668 79.7167 24.0016C79.2771 24.4787 79.0573 25.125 79.0573 25.9405V31.1448H76.9101V21.5724H78.8711L78.9946 23.0829H79.0764C79.3185 22.546 79.7275 22.0994 80.2439 21.8081C80.8132 21.5018 81.4519 21.3437 82.1 21.3489C82.748 21.354 83.3841 21.5221 83.9483 21.8373C84.491 22.1722 84.9162 22.6642 85.1663 23.2463H85.2272C85.5208 22.6569 85.9886 22.1697 86.5687 21.8493C87.1868 21.509 87.885 21.3363 88.5923 21.3487C89.7059 21.3487 90.5864 21.7025 91.2336 22.4102Z" fill="white"/>
<path d="M103.288 27.021H95.5279C95.623 27.8801 95.9293 28.5298 96.4466 28.9703C96.964 29.4107 97.6484 29.632 98.4998 29.6343C99.1054 29.6565 99.706 29.5187 100.24 29.2352C100.448 29.1261 100.632 28.9772 100.782 28.797C100.931 28.6168 101.042 28.409 101.11 28.1857H103.175C102.964 29.1158 102.405 29.9323 101.609 30.4705C100.77 31.0692 99.7265 31.3685 98.4772 31.3685C97.5468 31.3862 96.6274 31.1682 95.8063 30.7354C95.05 30.328 94.4271 29.7156 94.0106 28.9703C93.5733 28.1725 93.3527 27.2762 93.3703 26.369C93.3551 25.4647 93.5756 24.5718 94.0106 23.7763C94.4252 23.0277 95.0436 22.409 95.7959 21.9905C96.5977 21.554 97.5011 21.3327 98.4163 21.3487C99.3126 21.332 100.198 21.5466 100.984 21.9715C101.722 22.3762 102.325 22.9817 102.724 23.7161C103.149 24.5142 103.361 25.4056 103.342 26.307C103.346 26.5461 103.328 26.7851 103.288 27.021ZM96.4884 23.6748C96.0012 24.0831 95.6886 24.6887 95.5505 25.4915H101.164C101.041 24.6887 100.745 24.0831 100.276 23.6748C99.8077 23.2664 99.1877 23.0623 98.4163 23.0623C97.6205 23.0623 96.9779 23.2664 96.4884 23.6748Z" fill="white"/>
<path d="M110.77 21.5328V23.4855C110.456 23.4333 110.138 23.4063 109.82 23.4046C108.858 23.4046 108.119 23.7074 107.602 24.313C107.084 24.9186 106.827 25.8402 106.829 27.0777V31.1397H104.68V21.5724H106.641L106.765 23.4098H106.827C107.057 22.7953 107.48 22.2696 108.033 21.9096C108.585 21.562 109.227 21.3825 109.881 21.3935C110.184 21.3845 110.485 21.4318 110.77 21.5328V21.5328Z" fill="white"/>
<path d="M122 21.5723L115.816 35.5526H113.518L115.642 30.8575L111.536 21.5672H113.827L116.737 28.5676H116.799L119.688 21.5672L122 21.5723Z" fill="white"/>
<path d="M17.2409 33.4795L20.5591 35.372V22.8937C20.5589 22.6059 20.4821 22.3232 20.3364 22.0741C20.1907 21.8249 19.9813 21.6181 19.7291 21.4744C19.4771 21.3303 19.1911 21.2543 18.8999 21.2542C18.6088 21.2541 18.3227 21.3297 18.0705 21.4736C17.8183 21.6175 17.6089 21.8244 17.4632 22.0737C17.3176 22.323 17.241 22.6058 17.2409 22.8937V33.4795Z" fill="white"/>
<path d="M14.4864 18.4808C14.2343 18.3371 13.9483 18.2615 13.6573 18.2616C13.3662 18.2618 13.0804 18.3377 12.8284 18.4817C12.5764 18.6257 12.3672 18.8328 12.2218 19.0821C12.0764 19.3314 11.9999 19.6141 12 19.9019V28.5815C11.9995 29.1608 12.1535 29.73 12.4464 30.2317C12.7394 30.7334 13.161 31.1499 13.6686 31.4391L15.3164 32.3802V19.9019C15.3162 19.6139 15.2394 19.331 15.0937 19.0816C14.948 18.8321 14.7386 18.625 14.4864 18.4808Z" fill="white"/>
<path d="M34.1831 24.5023V20.7173L23.249 26.9539C22.9972 27.0983 22.7881 27.3055 22.6428 27.5549C22.4974 27.8043 22.4209 28.0871 22.4208 28.375C22.421 28.6626 22.4977 28.9451 22.6432 29.1942C22.7888 29.4432 22.998 29.65 23.2499 29.7938C23.5019 29.9377 23.7876 30.0134 24.0785 30.0135C24.3694 30.0136 24.6552 29.938 24.9072 29.7943L34.1831 24.5023Z" fill="white"/>
<path d="M22.4242 34.3586C22.4241 34.6464 22.5006 34.9291 22.646 35.1784C22.7914 35.4277 23.0006 35.6348 23.2526 35.7788C23.5046 35.9228 23.7905 35.9987 24.0815 35.9989C24.3726 35.999 24.6585 35.9234 24.9107 35.7797L32.5144 31.439C33.0215 31.1492 33.4426 30.7326 33.7354 30.231C34.0283 29.7294 34.1827 29.1606 34.183 28.5814V26.6993L23.249 32.9479C22.9992 33.0917 22.7917 33.2975 22.647 33.5449C22.5024 33.7923 22.4256 34.0728 22.4242 34.3586V34.3586Z" fill="white"/>
<path d="M17.8551 14.4842L14.5387 16.3767L25.4623 22.6253C25.7144 22.769 26.0004 22.8446 26.2914 22.8446C26.5824 22.8446 26.8684 22.769 27.1205 22.6253V22.6253C27.3727 22.4814 27.5822 22.2744 27.7278 22.0251C27.8735 21.7758 27.9501 21.4929 27.9501 21.205C27.9501 20.9171 27.8735 20.6343 27.7278 20.385C27.5822 20.1357 27.3727 19.9287 27.1205 19.7848L17.8551 14.4842Z" fill="white"/>
<path d="M32.3631 19.6232C32.6149 19.4792 32.824 19.2722 32.9693 19.0231C33.1147 18.774 33.1912 18.4914 33.1912 18.2038C33.1912 17.9162 33.1147 17.6336 32.9693 17.3845C32.824 17.1354 32.6149 16.9284 32.3631 16.7844L24.7593 12.4438C24.2525 12.1538 23.6772 12.0011 23.0916 12.0011C22.506 12.0011 21.9307 12.1538 21.4238 12.4438L19.7691 13.3849L30.6996 19.6232C30.9521 19.7687 31.2391 19.8454 31.5314 19.8454C31.8236 19.8454 32.1106 19.7687 32.3631 19.6232V19.6232Z" fill="white"/>
<path d="M1151 14C1151 10.6863 1153.69 8 1157 8H1177C1180.31 8 1183 10.6863 1183 14V34C1183 37.3137 1180.31 40 1177 40H1157C1153.69 40 1151 37.3137 1151 34V14Z" fill="white" fill-opacity="0.16"/>
<path d="M1173.53 29.4694L1170.56 26.5C1171.45 25.3403 1171.87 23.8855 1171.72 22.4307C1171.58 20.9759 1170.89 19.6301 1169.79 18.6662C1168.69 17.7024 1167.27 17.1927 1165.81 17.2405C1164.35 17.2883 1162.96 17.8901 1161.92 18.9237C1160.89 19.9574 1160.29 21.3455 1160.24 22.8066C1160.19 24.2676 1160.7 25.6921 1161.67 26.7912C1162.63 27.8902 1163.98 28.5814 1165.43 28.7247C1166.89 28.8679 1168.34 28.4524 1169.5 27.5625L1172.47 30.5338C1172.54 30.6035 1172.62 30.6589 1172.71 30.6966C1172.81 30.7344 1172.9 30.7538 1173 30.7538C1173.1 30.7538 1173.2 30.7344 1173.29 30.6966C1173.38 30.6589 1173.46 30.6035 1173.53 30.5338C1173.6 30.464 1173.66 30.3812 1173.7 30.29C1173.73 30.1989 1173.75 30.1012 1173.75 30.0025C1173.75 29.9038 1173.73 29.8061 1173.7 29.715C1173.66 29.6238 1173.6 29.541 1173.53 29.4713L1173.53 29.4694ZM1161.75 23C1161.75 22.1594 1162 21.3377 1162.47 20.6388C1162.93 19.9399 1163.6 19.3952 1164.37 19.0735C1165.15 18.7518 1166 18.6677 1166.83 18.8317C1167.65 18.9957 1168.41 19.4004 1169.01 19.9948C1169.6 20.5892 1170 21.3465 1170.17 22.1709C1170.33 22.9953 1170.25 23.8498 1169.93 24.6264C1169.6 25.403 1169.06 26.0668 1168.36 26.5338C1167.66 27.0007 1166.84 27.25 1166 27.25C1164.87 27.2488 1163.79 26.8007 1163 26.0039C1162.2 25.2072 1161.75 24.1268 1161.75 23Z" fill="#EBEBFE"/>
<path d="M1191 14C1191 10.6863 1193.69 8 1197 8H1217C1220.31 8 1223 10.6863 1223 14V34C1223 37.3137 1220.31 40 1217 40H1197C1193.69 40 1191 37.3137 1191 34V14Z" fill="white" fill-opacity="0.16"/>
<path d="M1213.08 26.3706C1212.54 25.4375 1212.25 24.0981 1212.25 22.5C1212.25 21.1076 1211.7 19.7723 1210.71 18.7877C1209.73 17.8031 1208.39 17.25 1207 17.25C1205.61 17.25 1204.27 17.8031 1203.29 18.7877C1202.3 19.7723 1201.75 21.1076 1201.75 22.5C1201.75 24.0987 1201.46 25.4375 1200.92 26.3706C1200.81 26.561 1200.75 26.7771 1200.75 26.9972C1200.75 27.2174 1200.81 27.4339 1200.92 27.625C1201.02 27.8162 1201.18 27.9749 1201.37 28.0848C1201.56 28.1947 1201.78 28.2517 1202 28.25H1212C1212.22 28.2514 1212.44 28.1942 1212.63 28.0843C1212.82 27.9745 1212.97 27.8159 1213.08 27.625C1213.19 27.4342 1213.25 27.2178 1213.25 26.9976C1213.25 26.7775 1213.19 26.5612 1213.08 26.3706ZM1202.42 26.75C1202.97 25.625 1203.25 24.1962 1203.25 22.5C1203.25 21.5054 1203.65 20.5516 1204.35 19.8483C1205.05 19.1451 1206.01 18.75 1207 18.75C1207.99 18.75 1208.95 19.1451 1209.65 19.8483C1210.35 20.5516 1210.75 21.5054 1210.75 22.5C1210.75 24.1956 1211.03 25.625 1211.58 26.75H1202.42ZM1209.75 30C1209.75 30.1989 1209.67 30.3897 1209.53 30.5303C1209.39 30.671 1209.2 30.75 1209 30.75H1205C1204.8 30.75 1204.61 30.671 1204.47 30.5303C1204.33 30.3897 1204.25 30.1989 1204.25 30C1204.25 29.8011 1204.33 29.6103 1204.47 29.4697C1204.61 29.329 1204.8 29.25 1205 29.25H1209C1209.2 29.25 1209.39 29.329 1209.53 29.4697C1209.67 29.6103 1209.75 29.8011 1209.75 30Z" fill="#EBEBFE"/>
<path d="M1231 14C1231 10.6863 1233.69 8 1237 8H1257C1260.31 8 1263 10.6863 1263 14V34C1263 37.3137 1260.31 40 1257 40H1237C1233.69 40 1231 37.3137 1231 34V14Z" fill="white" fill-opacity="0.16"/>
<path d="M1253 18.75H1249C1248.63 18.7499 1248.25 18.8266 1247.91 18.9755C1247.57 19.1244 1247.26 19.3423 1247 19.6156C1246.74 19.3423 1246.43 19.1244 1246.09 18.9755C1245.75 18.8266 1245.37 18.7499 1245 18.75H1241C1240.67 18.75 1240.35 18.8817 1240.12 19.1161C1239.88 19.3505 1239.75 19.6685 1239.75 20V28C1239.75 28.3315 1239.88 28.6495 1240.12 28.8839C1240.35 29.1183 1240.67 29.25 1241 29.25H1245C1245.33 29.25 1245.65 29.3817 1245.88 29.6161C1246.12 29.8505 1246.25 30.1685 1246.25 30.5C1246.25 30.6989 1246.33 30.8897 1246.47 31.0303C1246.61 31.171 1246.8 31.25 1247 31.25C1247.2 31.25 1247.39 31.171 1247.53 31.0303C1247.67 30.8897 1247.75 30.6989 1247.75 30.5C1247.75 30.1685 1247.88 29.8505 1248.12 29.6161C1248.35 29.3817 1248.67 29.25 1249 29.25H1253C1253.33 29.25 1253.65 29.1183 1253.88 28.8839C1254.12 28.6495 1254.25 28.3315 1254.25 28V20C1254.25 19.6685 1254.12 19.3505 1253.88 19.1161C1253.65 18.8817 1253.33 18.75 1253 18.75ZM1245 27.75H1241.25V20.25H1245C1245.33 20.25 1245.65 20.3817 1245.88 20.6161C1246.12 20.8505 1246.25 21.1685 1246.25 21.5V28.0506C1245.86 27.8526 1245.43 27.7495 1245 27.75ZM1252.75 27.75H1249C1248.57 27.7497 1248.14 27.8532 1247.75 28.0519V21.5C1247.75 21.1685 1247.88 20.8505 1248.12 20.6161C1248.35 20.3817 1248.67 20.25 1249 20.25H1252.75V27.75Z" fill="#EBEBFE"/>
<path d="M1271 14C1271 10.6863 1273.69 8 1277 8H1426C1429.31 8 1432 10.6863 1432 14V34C1432 37.3137 1429.31 40 1426 40H1277C1273.69 40 1271 37.3137 1271 34V14Z" fill="white" fill-opacity="0.16"/>
<path d="M1293.65 29.125C1292.79 27.6211 1291.45 26.4492 1289.85 25.7981C1290.65 25.2 1291.24 24.366 1291.53 23.4144C1291.83 22.4628 1291.82 21.4418 1291.51 20.496C1291.19 19.5503 1290.59 18.7276 1289.78 18.1447C1288.97 17.5618 1288 17.2481 1287 17.2481C1286 17.2481 1285.03 17.5618 1284.22 18.1447C1283.41 18.7276 1282.81 19.5503 1282.49 20.496C1282.18 21.4418 1282.17 22.4628 1282.47 23.4144C1282.76 24.366 1283.35 25.2 1284.15 25.7981C1282.55 26.4492 1281.21 27.6211 1280.35 29.125C1280.3 29.2104 1280.26 29.3056 1280.25 29.4049C1280.23 29.5042 1280.24 29.6057 1280.26 29.7032C1280.29 29.8007 1280.33 29.8923 1280.39 29.9726C1280.45 30.0529 1280.53 30.1202 1280.61 30.1705C1280.7 30.2208 1280.8 30.2531 1280.9 30.2654C1281 30.2778 1281.1 30.2699 1281.19 30.2423C1281.29 30.2148 1281.38 30.1681 1281.46 30.1049C1281.54 30.0418 1281.6 29.9636 1281.65 29.875C1282.78 27.9175 1284.78 26.75 1287 26.75C1289.22 26.75 1291.22 27.9181 1292.35 29.875C1292.45 30.0403 1292.62 30.1592 1292.81 30.2065C1292.99 30.2537 1293.19 30.2257 1293.36 30.1283C1293.53 30.0309 1293.66 29.8718 1293.71 29.6845C1293.76 29.4973 1293.74 29.2967 1293.65 29.125ZM1283.75 22C1283.75 21.3572 1283.94 20.7289 1284.3 20.1944C1284.65 19.6599 1285.16 19.2434 1285.76 18.9974C1286.35 18.7514 1287 18.687 1287.63 18.8124C1288.26 18.9378 1288.84 19.2474 1289.3 19.7019C1289.75 20.1564 1290.06 20.7355 1290.19 21.366C1290.31 21.9964 1290.25 22.6499 1290 23.2437C1289.76 23.8376 1289.34 24.3452 1288.81 24.7023C1288.27 25.0594 1287.64 25.25 1287 25.25C1286.14 25.249 1285.31 24.9063 1284.7 24.297C1284.09 23.6877 1283.75 22.8616 1283.75 22Z" fill="#EBEBFE"/>
<path d="M1303.49 29L1306.99 19.1357H1308.97L1312.47 29H1310.63L1309.8 26.4502H1306.15L1305.33 29H1303.49ZM1307.92 20.9678L1306.6 25.0898H1309.36L1308.04 20.9678H1307.92ZM1313.99 29V21.5283H1315.69V22.6699H1315.81C1316.17 21.8701 1316.88 21.3848 1317.96 21.3848C1319.63 21.3848 1320.54 22.3896 1320.54 24.167V29H1318.84V24.5635C1318.84 23.4014 1318.37 22.8135 1317.33 22.8135C1316.32 22.8135 1315.69 23.5244 1315.69 24.6455V29H1313.99ZM1325.24 29.123C1323.37 29.123 1322.18 27.6396 1322.18 25.2744V25.2607C1322.18 22.8818 1323.35 21.4053 1325.24 21.4053C1326.27 21.4053 1327.12 21.9111 1327.51 22.7178H1327.63V18.6367H1329.34V29H1327.63V27.8311H1327.51C1327.1 28.6445 1326.3 29.123 1325.24 29.123ZM1325.78 27.6875C1326.94 27.6875 1327.66 26.7715 1327.66 25.2744V25.2607C1327.66 23.7637 1326.93 22.8408 1325.78 22.8408C1324.62 22.8408 1323.91 23.7568 1323.91 25.2607V25.2744C1323.91 26.7783 1324.62 27.6875 1325.78 27.6875ZM1331.48 29V21.5283H1333.18V22.6768H1333.3C1333.55 21.877 1334.23 21.4053 1335.22 21.4053C1335.48 21.4053 1335.74 21.4395 1335.91 21.4873V23.0117C1335.63 22.957 1335.35 22.916 1335.06 22.916C1333.93 22.916 1333.18 23.5928 1333.18 24.6592V29H1331.48ZM1340.31 29.1504C1338.09 29.1504 1336.74 27.6602 1336.74 25.2812V25.2744C1336.74 22.9229 1338.1 21.3848 1340.23 21.3848C1342.35 21.3848 1343.67 22.875 1343.67 25.1309V25.6914H1338.44C1338.46 27.0312 1339.19 27.8105 1340.34 27.8105C1341.27 27.8105 1341.79 27.3457 1341.96 27.0039L1341.98 26.9561H1343.6L1343.58 27.0176C1343.34 27.9814 1342.34 29.1504 1340.31 29.1504ZM1340.25 22.7178C1339.3 22.7178 1338.59 23.3604 1338.46 24.5498H1342.01C1341.89 23.3262 1341.2 22.7178 1340.25 22.7178ZM1346.7 29L1344.67 21.5283H1346.38L1347.62 27.1406H1347.74L1349.18 21.5283H1350.8L1352.25 27.1406H1352.36L1353.6 21.5283H1355.29L1353.26 29H1351.48L1350.02 23.5859H1349.91L1348.46 29H1346.7ZM1364.11 29.2461C1361.82 29.2461 1360.36 28.1182 1360.24 26.416L1360.23 26.3203H1361.94L1361.95 26.3887C1362.03 27.2158 1362.91 27.7627 1364.16 27.7627C1365.35 27.7627 1366.18 27.1748 1366.18 26.3271V26.3203C1366.18 25.6094 1365.67 25.1787 1364.4 24.9053L1363.34 24.6865C1361.32 24.2627 1360.45 23.3193 1360.45 21.8496V21.8428C1360.45 20.0791 1361.97 18.8896 1364.1 18.8896C1366.29 18.8896 1367.65 20.0859 1367.77 21.6719L1367.78 21.7607H1366.09L1366.08 21.6787C1365.95 20.9131 1365.22 20.3662 1364.09 20.373C1363 20.373 1362.22 20.8857 1362.22 21.7266V21.7334C1362.22 22.4307 1362.72 22.8682 1363.95 23.1279L1365.01 23.3535C1367.09 23.791 1367.96 24.625 1367.96 26.1152V26.1221C1367.96 28.043 1366.47 29.2461 1364.11 29.2461ZM1369.76 29V21.5283H1371.46V22.6904H1371.58C1371.9 21.8564 1372.65 21.3848 1373.63 21.3848C1374.64 21.3848 1375.38 21.9043 1375.7 22.7314H1375.82C1376.18 21.918 1377.04 21.3848 1378.08 21.3848C1379.58 21.3848 1380.49 22.3076 1380.49 23.8594V29H1378.78V24.2764C1378.78 23.3057 1378.34 22.8135 1377.43 22.8135C1376.54 22.8135 1375.97 23.4766 1375.97 24.3311V29H1374.26V24.1533C1374.26 23.3262 1373.75 22.8135 1372.92 22.8135C1372.08 22.8135 1371.46 23.5244 1371.46 24.4541V29H1369.76ZM1383.38 20.2773C1382.82 20.2773 1382.36 19.833 1382.36 19.2725C1382.36 18.7188 1382.82 18.2676 1383.38 18.2676C1383.93 18.2676 1384.39 18.7188 1384.39 19.2725C1384.39 19.833 1383.93 20.2773 1383.38 20.2773ZM1382.52 29V21.5283H1384.22V29H1382.52ZM1389.26 29.0342C1387.54 29.0342 1386.84 28.46 1386.84 27.0176V22.8477H1385.67V21.5283H1386.84V19.6963H1388.57V21.5283H1390.14V22.8477H1388.57V26.6143C1388.57 27.3594 1388.86 27.6738 1389.57 27.6738C1389.81 27.6738 1389.94 27.667 1390.14 27.6465V28.959C1389.9 29.0068 1389.58 29.0342 1389.26 29.0342ZM1391.91 29V18.6367H1393.61V22.6699H1393.73C1394.08 21.8701 1394.8 21.3848 1395.88 21.3848C1397.55 21.3848 1398.46 22.3896 1398.46 24.167V29H1396.75V24.5635C1396.75 23.4014 1396.28 22.8135 1395.25 22.8135C1394.24 22.8135 1393.61 23.5244 1393.61 24.6455V29H1391.91Z" fill="white"/>
<path d="M1421.53 22.5306L1416.53 27.5306C1416.46 27.6005 1416.38 27.656 1416.29 27.6939C1416.2 27.7317 1416.1 27.7512 1416 27.7512C1415.9 27.7512 1415.8 27.7317 1415.71 27.6939C1415.62 27.656 1415.54 27.6005 1415.47 27.5306L1410.47 22.5306C1410.33 22.3897 1410.25 22.1986 1410.25 21.9994C1410.25 21.8001 1410.33 21.609 1410.47 21.4681C1410.61 21.3272 1410.8 21.2481 1411 21.2481C1411.2 21.2481 1411.39 21.3272 1411.53 21.4681L1416 25.9375L1420.47 21.4675C1420.61 21.3266 1420.8 21.2475 1421 21.2475C1421.2 21.2475 1421.39 21.3266 1421.53 21.4675C1421.67 21.6084 1421.75 21.7995 1421.75 21.9988C1421.75 22.198 1421.67 22.3891 1421.53 22.53L1421.53 22.5306Z" fill="#EBEBFE"/>
</svg>
