<svg width="56" height="852" viewBox="0 0 56 852" fill="none" xmlns="http://www.w3.org/2000/svg">
<rect width="56" height="852" fill="#F6F6F7"/>
<rect x="8" y="24" width="40" height="36" rx="6" fill="#EBEBFE"/>
<path d="M29.4996 46.9996V43.9995C29.4996 43.8669 29.447 43.7397 29.3532 43.646C29.2594 43.5522 29.1322 43.4995 28.9996 43.4995H26.9996C26.867 43.4995 26.7398 43.5522 26.6461 43.646C26.5523 43.7397 26.4996 43.8669 26.4996 43.9995V46.9996C26.4996 47.1322 26.447 47.2594 26.3532 47.3531C26.2595 47.4469 26.1323 47.4996 25.9997 47.4996L23.0001 47.5C22.9344 47.5 22.8694 47.4871 22.8087 47.462C22.748 47.4368 22.6929 47.4 22.6465 47.3536C22.6 47.3071 22.5632 47.252 22.5381 47.1913C22.5129 47.1307 22.5 47.0657 22.5 47V41.2212C22.5 41.1516 22.5146 41.0827 22.5427 41.019C22.5709 40.9553 22.6121 40.8981 22.6636 40.8513L27.6633 36.3054C27.7553 36.2217 27.8752 36.1753 27.9996 36.1753C28.124 36.1753 28.244 36.2217 28.336 36.3053L33.3363 40.8513C33.3879 40.8981 33.4291 40.9553 33.4573 41.019C33.4854 41.0827 33.5 41.1516 33.5 41.2212V47C33.5 47.0657 33.4871 47.1307 33.4619 47.1914C33.4368 47.252 33.4 47.3071 33.3535 47.3536C33.3071 47.4 33.252 47.4368 33.1913 47.462C33.1306 47.4871 33.0656 47.5 32.9999 47.5L29.9996 47.4996C29.867 47.4996 29.7398 47.4469 29.6461 47.3531C29.5523 47.2594 29.4996 47.1322 29.4996 46.9996V46.9996Z" stroke="#2222C3" stroke-width="1.5" stroke-linecap="round" stroke-linejoin="round"/>
<rect x="8" y="60" width="40" height="36" rx="6" fill="#F6F6F7"/>
<path d="M22.75 78.9545V73.25C22.75 73.1174 22.8027 72.9902 22.8964 72.8964C22.9902 72.8027 23.1174 72.75 23.25 72.75H32.75C32.8826 72.75 33.0098 72.8027 33.1036 72.8964C33.1973 72.9902 33.25 73.1174 33.25 73.25V82.75C33.25 82.8826 33.1973 83.0098 33.1036 83.1036C33.0098 83.1973 32.8826 83.25 32.75 83.25H28.4772" stroke="#1F1F23" stroke-width="1.5" stroke-linecap="round" stroke-linejoin="round"/>
<path d="M28 79.5L24 83.5L22 81.5" stroke="#1F1F23" stroke-width="1.5" stroke-linecap="round" stroke-linejoin="round"/>
<rect x="8" y="120" width="40" height="36" rx="6" fill="#DBDBE0"/>
<path d="M25.5 140C27.2949 140 28.75 138.545 28.75 136.75C28.75 134.955 27.2949 133.5 25.5 133.5C23.7051 133.5 22.25 134.955 22.25 136.75C22.25 138.545 23.7051 140 25.5 140Z" stroke="#1F1F23" stroke-width="1.5" stroke-linecap="round" stroke-linejoin="round"/>
<path d="M29.7135 133.621C30.1606 133.495 30.6294 133.467 31.0884 133.537C31.5474 133.608 31.986 133.776 32.3747 134.03C32.7633 134.284 33.0929 134.619 33.3413 135.011C33.5897 135.403 33.7512 135.845 33.8148 136.305C33.8784 136.765 33.8426 137.233 33.71 137.678C33.5774 138.123 33.3509 138.535 33.0458 138.885C32.7408 139.235 32.3642 139.516 31.9415 139.708C31.5188 139.9 31.0598 140 30.5954 140" stroke="#1F1F23" stroke-width="1.5" stroke-linecap="round" stroke-linejoin="round"/>
<path d="M21 142.337C21.5076 141.615 22.1814 141.026 22.9646 140.619C23.7478 140.212 24.6174 140 25.4999 140C26.3825 140 27.2521 140.212 28.0353 140.619C28.8185 141.026 29.4924 141.615 30 142.337" stroke="#1F1F23" stroke-width="1.5" stroke-linecap="round" stroke-linejoin="round"/>
<path d="M30.5951 140C31.4777 139.999 32.3475 140.211 33.1308 140.618C33.9141 141.025 34.5879 141.615 35.0951 142.337" stroke="#1F1F23" stroke-width="1.5" stroke-linecap="round" stroke-linejoin="round"/>
<rect x="8" y="156" width="40" height="36" rx="6" fill="#F6F6F7"/>
<path d="M33.5556 179H22.4615C22.3392 179 22.2221 178.951 22.1356 178.864C22.0491 178.778 22.0004 178.661 22 178.538V171H33.5C33.6326 171 33.7598 171.053 33.8536 171.146C33.9473 171.24 34 171.367 34 171.5V178.556C34 178.673 33.9532 178.786 33.8698 178.87C33.7865 178.953 33.6734 179 33.5556 179V179Z" stroke="#1F1F23" stroke-width="1.5" stroke-linecap="round" stroke-linejoin="round"/>
<path d="M26.1492 168.918L28 171H22V169.25C22 169.117 22.0527 168.99 22.1464 168.896C22.2402 168.803 22.3674 168.75 22.5 168.75H25.7755C25.8461 168.75 25.9159 168.765 25.9803 168.794C26.0447 168.823 26.1023 168.865 26.1492 168.918V168.918Z" stroke="#1F1F23" stroke-width="1.5" stroke-linecap="round" stroke-linejoin="round"/>
<rect x="8" y="192" width="40" height="36" rx="6" fill="#F6F6F7"/>
<path d="M33.5 206.25H22.5C22.2239 206.25 22 206.474 22 206.75V214.75C22 215.026 22.2239 215.25 22.5 215.25H33.5C33.7761 215.25 34 215.026 34 214.75V206.75C34 206.474 33.7761 206.25 33.5 206.25Z" stroke="#1F1F23" stroke-width="1.5" stroke-linecap="round" stroke-linejoin="round"/>
<path d="M30.5 206.25V205C30.5 204.735 30.3946 204.48 30.2071 204.293C30.0196 204.105 29.7652 204 29.5 204H26.5C26.2348 204 25.9804 204.105 25.7929 204.293C25.6054 204.48 25.5 204.735 25.5 205V206.25" stroke="#1F1F23" stroke-width="1.5" stroke-linecap="round" stroke-linejoin="round"/>
<path d="M22 212H34" stroke="#1F1F23" stroke-width="1.5" stroke-linecap="round" stroke-linejoin="round"/>
<rect x="8" y="808" width="40" height="36" rx="6" fill="#EBEBFE"/>
<path d="M27.416 829.237L27.4238 833.251C27.4238 833.432 27.3754 833.614 27.2861 833.77C27.1969 833.926 27.0749 834.057 26.9209 834.148C26.7668 834.238 26.5963 834.288 26.418 834.288C26.2396 834.288 26.0691 834.238 25.915 834.148C25.761 834.058 25.639 833.926 25.5498 833.77C25.4606 833.614 25.4112 833.432 25.4111 833.251V828.036L27.416 829.237ZM33.915 830.142C34.069 830.233 34.1989 830.364 34.2881 830.52C34.3772 830.676 34.4257 830.849 34.4258 831.03C34.4258 831.211 34.3851 831.384 34.2959 831.541C34.2066 831.697 34.0769 831.82 33.9228 831.911C33.7687 832.001 33.5896 832.042 33.4111 832.042C33.2328 832.042 33.0544 831.992 32.9004 831.902L28.4463 829.294L30.4746 828.134L33.915 830.142ZM24.9492 827.115L21.5254 829.122C21.3713 829.212 21.193 829.262 21.0146 829.262C20.8361 829.262 20.6571 829.221 20.5029 829.13C20.3489 829.04 20.2191 828.916 20.1299 828.76C20.0406 828.604 20 828.43 20 828.25C20.0001 828.069 20.0485 827.896 20.1377 827.74C20.2269 827.583 20.3576 827.452 20.5117 827.362L24.9658 824.753L24.9492 827.115ZM34.9853 822.747C35.1638 822.747 35.3429 822.788 35.4971 822.878C35.6511 822.969 35.7809 823.092 35.8701 823.249C35.9593 823.405 36 823.577 36 823.758C36 823.939 35.9514 824.112 35.8623 824.268C35.773 824.424 35.6424 824.556 35.4883 824.647L31.0342 827.263L31.0508 824.902L34.4746 822.886C34.6286 822.796 34.807 822.747 34.9853 822.747ZM29.582 817.712C29.7604 817.712 29.9309 817.762 30.085 817.852C30.2391 817.943 30.3609 818.075 30.4502 818.231C30.5393 818.387 30.5878 818.568 30.5879 818.749V823.964L28.584 822.771L28.5762 818.749C28.5762 818.568 28.6248 818.387 28.7139 818.231C28.8031 818.075 28.925 817.943 29.0791 817.852C29.2332 817.762 29.4036 817.712 29.582 817.712ZM22.5879 819.966C22.7664 819.966 22.9454 820.015 23.0996 820.106L27.5537 822.713L25.5254 823.874L22.085 821.867C21.9308 821.776 21.8011 821.644 21.7119 821.488C21.6227 821.332 21.5742 821.159 21.5742 820.978C21.5742 820.797 21.6149 820.625 21.7041 820.468C21.7933 820.312 21.923 820.189 22.0771 820.098C22.2312 820.008 22.4095 819.966 22.5879 819.966Z" fill="#492FF4"/>
</svg>
