<svg width="17" height="17" viewBox="0 0 17 17" fill="none" xmlns="http://www.w3.org/2000/svg">
<path d="M14.1861 8.70868L9.05737 13.8337C8.35389 14.5369 7.39985 14.9319 6.40515 14.9317C5.41044 14.9315 4.45655 14.5362 3.75331 13.8327C3.05007 13.1293 2.6551 12.1752 2.65527 11.1805C2.65545 10.1858 3.05076 9.23192 3.75425 8.52868L9.88925 2.41056C10.3583 1.94179 10.9943 1.67854 11.6574 1.67871C11.9858 1.6788 12.3109 1.74356 12.6142 1.86929C12.9175 1.99502 13.1931 2.17926 13.4252 2.4115C13.6573 2.64373 13.8414 2.91941 13.967 3.22279C14.0925 3.52617 14.1571 3.85132 14.157 4.17966C14.1569 4.508 14.0922 4.83311 13.9665 5.13643C13.8407 5.43974 13.6565 5.71532 13.4242 5.94743L13.4136 5.95743L7.42612 11.7212C7.35513 11.7895 7.27138 11.8431 7.17965 11.879C7.08793 11.9149 6.99003 11.9324 6.89154 11.9305C6.79305 11.9286 6.69591 11.9073 6.60565 11.8679C6.51539 11.8284 6.43379 11.7716 6.3655 11.7006C6.29721 11.6296 6.24358 11.5458 6.20766 11.4541C6.17174 11.3624 6.15423 11.2645 6.15615 11.166C6.15806 11.0675 6.17936 10.9703 6.21882 10.8801C6.25828 10.7898 6.31513 10.7082 6.38612 10.6399L12.368 4.88243C12.555 4.6943 12.6596 4.43959 12.6587 4.17434C12.6579 3.90909 12.5518 3.65504 12.3636 3.46806C12.2705 3.37548 12.16 3.30215 12.0385 3.25227C11.917 3.20238 11.7869 3.17691 11.6555 3.17732C11.3903 3.17814 11.1362 3.2843 10.9492 3.47243L4.81425 9.58868C4.39231 10.0108 4.15533 10.5832 4.15544 11.1801C4.1555 11.4756 4.21377 11.7682 4.32691 12.0412C4.44006 12.3142 4.60587 12.5623 4.81487 12.7712C5.02388 12.9801 5.27199 13.1458 5.54504 13.2589C5.81809 13.3719 6.11073 13.43 6.40625 13.43C7.00309 13.4299 7.57543 13.1927 7.99737 12.7706L13.1261 7.64556C13.1959 7.57579 13.2787 7.52045 13.3699 7.4827C13.461 7.44494 13.5587 7.42551 13.6574 7.42551C13.756 7.42551 13.8537 7.44494 13.9449 7.4827C14.036 7.52045 14.1189 7.57579 14.1886 7.64556C14.2584 7.71532 14.3137 7.79815 14.3515 7.8893C14.3892 7.98045 14.4087 8.07815 14.4087 8.17681C14.4087 8.27547 14.3892 8.37317 14.3515 8.46432C14.3137 8.55547 14.2584 8.63829 14.1886 8.70806L14.1861 8.70868Z" fill="#1F1F23"/>
</svg>