<svg width="17" height="17" viewBox="0 0 17 17" fill="none" xmlns="http://www.w3.org/2000/svg">
<g clip-path="url(#clip0_13009_12341)">
<path d="M8.72998 9.83751C9.35814 9.30951 9.80871 8.60109 10.0206 7.80833C10.2325 7.01557 10.1954 6.17682 9.91441 5.40584C9.63343 4.63486 9.12212 3.96895 8.44984 3.49842C7.77755 3.02789 6.97681 2.77551 6.15623 2.77551C5.33564 2.77551 4.5349 3.02789 3.86261 3.49842C3.19033 3.96895 2.67902 4.63486 2.39804 5.40584C2.11705 6.17682 2.07998 7.01557 2.29186 7.80833C2.50374 8.60109 2.95432 9.30951 3.58248 9.83751C2.60159 10.281 1.75155 10.9698 1.11435 11.8375C0.996661 11.9979 0.947499 12.1984 0.977681 12.3951C1.00786 12.5917 1.11491 12.7683 1.27529 12.8859C1.43566 13.0036 1.63622 13.0528 1.83284 13.0226C2.02946 12.9924 2.20604 12.8854 2.32373 12.725C2.76481 12.1226 3.3417 11.6326 4.00758 11.2949C4.67347 10.9572 5.40959 10.7812 6.15623 10.7812C6.90286 10.7812 7.63898 10.9572 8.30487 11.2949C8.97075 11.6326 9.54764 12.1226 9.98873 12.725C10.1064 12.8855 10.283 12.9926 10.4797 13.0228C10.6764 13.0531 10.877 13.0039 11.0375 12.8863C11.1979 12.7686 11.3051 12.592 11.3353 12.3953C11.3655 12.1986 11.3164 11.998 11.1987 11.8375C10.5611 10.97 9.71094 10.2812 8.72998 9.83751ZM3.65623 6.77876C3.65623 6.2843 3.80285 5.80095 4.07755 5.38983C4.35225 4.97871 4.7427 4.65828 5.19952 4.46906C5.65633 4.27984 6.159 4.23033 6.64395 4.32679C7.1289 4.42326 7.57436 4.66136 7.92399 5.01099C8.27362 5.36062 8.51173 5.80608 8.60819 6.29103C8.70465 6.77598 8.65514 7.27865 8.46592 7.73547C8.27671 8.19228 7.95627 8.58273 7.54515 8.85743C7.13403 9.13213 6.65068 9.27876 6.15623 9.27876C5.49318 9.27876 4.8573 9.01537 4.38846 8.54652C3.91962 8.07768 3.65623 7.4418 3.65623 6.77876ZM16.5375 12.8831C16.4581 12.9415 16.368 12.9836 16.2723 13.0071C16.1766 13.0306 16.0772 13.035 15.9798 13.0201C15.8824 13.0052 15.7889 12.9712 15.7047 12.9202C15.6204 12.8691 15.547 12.8019 15.4887 12.7225C15.0465 12.1212 14.4694 11.6321 13.8038 11.2945C13.1382 10.9569 12.4026 10.7803 11.6562 10.7788C11.4573 10.7788 11.2665 10.6997 11.1259 10.5591C10.9852 10.4184 10.9062 10.2277 10.9062 10.0288C10.9062 9.82984 10.9852 9.63908 11.1259 9.49843C11.2665 9.35778 11.4573 9.27876 11.6562 9.27876C12.0243 9.27833 12.3878 9.19661 12.7207 9.03945C13.0535 8.88229 13.3476 8.65357 13.5818 8.36961C13.8161 8.08566 13.9847 7.75348 14.0757 7.3968C14.1667 7.04013 14.1778 6.66775 14.1082 6.30629C14.0387 5.94482 13.8901 5.60317 13.6733 5.30575C13.4564 5.00833 13.1765 4.76248 12.8536 4.58574C12.5307 4.40901 12.1727 4.30577 11.8053 4.28339C11.4379 4.261 11.0701 4.32003 10.7281 4.45626C10.6365 4.49376 10.5384 4.51277 10.4394 4.51217C10.3404 4.51158 10.2425 4.49139 10.1514 4.45279C10.0602 4.41418 9.97763 4.35791 9.90834 4.28723C9.83904 4.21654 9.78443 4.13284 9.74764 4.04094C9.71084 3.94905 9.69261 3.85078 9.69398 3.75181C9.69535 3.65283 9.7163 3.55511 9.75562 3.46427C9.79494 3.37343 9.85185 3.29127 9.92307 3.22253C9.9943 3.15379 10.0784 3.09983 10.1706 3.06376C11.0533 2.71035 12.033 2.68293 12.9341 2.98641C13.8352 3.2899 14.5987 3.90444 15.0877 4.71985C15.5768 5.53526 15.7593 6.49821 15.6027 7.43604C15.4461 8.37387 14.9606 9.22524 14.2331 9.83751C15.214 10.281 16.064 10.9698 16.7012 11.8375C16.8177 11.998 16.8659 12.1982 16.8352 12.3941C16.8046 12.5901 16.6975 12.7659 16.5375 12.8831Z" fill="#1F1F23"/>
</g>
<defs>
<clipPath id="clip0_13009_12341">
<rect width="16" height="16" fill="white" transform="translate(0.90625 0.0288086)"/>
</clipPath>
</defs>
</svg>
