<svg width="17" height="17" viewBox="0 0 17 17" fill="none" xmlns="http://www.w3.org/2000/svg">
<path d="M15.29 4.43756L12.4975 1.64443C12.3814 1.52831 12.2436 1.43619 12.0919 1.37334C11.9402 1.31049 11.7776 1.27814 11.6134 1.27814C11.4492 1.27814 11.2867 1.31049 11.135 1.37334C10.9833 1.43619 10.8455 1.52831 10.7294 1.64443L3.02251 9.35193C2.90601 9.46767 2.81364 9.60538 2.75077 9.75709C2.6879 9.90879 2.65578 10.0715 2.65626 10.2357V13.0288C2.65626 13.3603 2.78795 13.6783 3.02237 13.9127C3.25679 14.1471 3.57473 14.2788 3.90626 14.2788H6.69938C6.86359 14.2793 7.02626 14.2471 7.17796 14.1842C7.32966 14.1214 7.46737 14.029 7.58313 13.9126L15.29 6.20506C15.5243 5.97065 15.656 5.65276 15.656 5.32131C15.656 4.98985 15.5243 4.67197 15.29 4.43756ZM6.59376 12.7788H4.15626V10.3413L9.40626 5.09131L11.8438 7.52881L6.59376 12.7788ZM12.9063 6.46631L10.4688 4.02881L11.615 2.88256L14.0525 5.32006L12.9063 6.46631Z" fill="#1F1F23"/>
</svg>
