<svg width="42" height="17" viewBox="0 0 42 17" fill="none" xmlns="http://www.w3.org/2000/svg">
<path d="M25.6914 14.008L23.3092 10.7946H21.4365V14.008H19.9219V4.3125H23.7636C26.0081 4.3125 27.3024 5.53136 27.3024 7.55357C27.3024 9.2018 26.4487 10.3099 24.9202 10.67L27.4401 14.008H25.6914ZM21.4365 9.38186H23.6535C25.058 9.38186 25.7327 8.78628 25.7327 7.55357C25.7327 6.32085 25.058 5.72527 23.6535 5.72527H21.4365V9.38186ZM30.9251 14.1604C29.135 14.1604 27.7443 12.6922 27.7443 10.7531C27.7443 8.82784 29.135 7.35966 30.9251 7.35966C31.8751 7.35966 32.7289 7.76133 33.1145 8.48157H33.1558L33.2384 7.51202H34.5465V14.008H33.2384L33.1558 13.0384H33.1145C32.7289 13.7587 31.8751 14.1604 30.9251 14.1604ZM29.2038 10.7531C29.2038 11.9443 29.9887 12.8584 31.1867 12.8584C32.3846 12.8584 33.1695 11.9443 33.1695 10.7531C33.1695 9.56193 32.3846 8.66162 31.1867 8.66162C29.9887 8.66162 29.2038 9.56193 29.2038 10.7531ZM36.3411 16.9998L37.7593 13.8141L35.0191 7.51202H36.5476L38.4892 12.2628H38.5305L40.4582 7.51202H42.0005L37.8695 16.9998H36.3411Z" fill="#1F1F23"/>
<path d="M7.23145 11.791L7.23926 15.6465C7.23926 15.8203 7.19153 15.9944 7.10449 16.1445C7.01751 16.2944 6.89915 16.421 6.74902 16.5078C6.59869 16.5947 6.43188 16.6416 6.25781 16.6416C6.08391 16.6415 5.91779 16.5946 5.76758 16.5078C5.61729 16.4209 5.49816 16.2946 5.41113 16.1445C5.3241 15.9944 5.27734 15.8203 5.27734 15.6465V10.6377L7.23145 11.791ZM13.5693 12.6602C13.7195 12.747 13.8456 12.8736 13.9326 13.0234C14.0197 13.1735 14.0674 13.3399 14.0674 13.5137C14.0674 13.6874 14.0274 13.8529 13.9404 14.0029C13.8535 14.1529 13.7273 14.2715 13.5771 14.3584C13.4268 14.4453 13.2522 14.4854 13.0781 14.4854C12.9042 14.4853 12.7303 14.4374 12.5801 14.3506L8.23633 11.8467L10.2139 10.7334L13.5693 12.6602ZM4.82617 9.75391L1.4873 11.6807C1.33708 11.7675 1.1632 11.8154 0.989258 11.8154C0.815191 11.8154 0.640566 11.7754 0.490234 11.6885C0.34004 11.6016 0.212951 11.483 0.125977 11.333C0.0391646 11.1831 2.11195e-05 11.0173 0 10.8438C0 10.67 0.0477323 10.5036 0.134766 10.3535C0.221769 10.2036 0.347904 10.077 0.498047 9.99023L4.8418 7.48633L4.82617 9.75391ZM14.6133 5.55859C14.7873 5.55859 14.962 5.59865 15.1123 5.68555C15.2624 5.77242 15.3886 5.89106 15.4756 6.04102C15.5625 6.19102 15.6025 6.35659 15.6025 6.53027C15.6025 6.70406 15.5548 6.87042 15.4678 7.02051C15.3807 7.17046 15.2537 7.29696 15.1035 7.38379L10.7598 9.89551L10.7764 7.62891L14.1152 5.69336C14.2655 5.60651 14.4393 5.55862 14.6133 5.55859ZM9.34375 0.724609C9.51782 0.724609 9.68463 0.771502 9.83496 0.858398C9.98513 0.945238 10.1034 1.07176 10.1904 1.22168C10.2775 1.37177 10.3252 1.54593 10.3252 1.71973V6.72754L8.37109 5.58203L8.36328 1.71973C8.36328 1.54593 8.41101 1.37177 8.49805 1.22168C8.58505 1.07175 8.70332 0.94523 8.85352 0.858398C9.00372 0.771573 9.16984 0.724687 9.34375 0.724609ZM2.52344 2.88867C2.6975 2.88867 2.87213 2.93654 3.02246 3.02344L7.36621 5.52734L5.3877 6.64062L2.0332 4.71387C1.88296 4.62701 1.75597 4.50059 1.66895 4.35059C1.58191 4.20049 1.53516 4.03414 1.53516 3.86035C1.53516 3.68656 1.57411 3.5202 1.66113 3.37012C1.74816 3.22015 1.87515 3.10148 2.02539 3.01465C2.17557 2.92791 2.34958 2.88872 2.52344 2.88867Z" fill="#1F1F23"/>
</svg>
