<svg width="17" height="16" viewBox="0 0 17 16" fill="none" xmlns="http://www.w3.org/2000/svg">
<path d="M14 4.25H8.83687L7.21187 2.41938C7.09422 2.28707 6.94981 2.18126 6.78818 2.10896C6.62656 2.03666 6.45143 1.99953 6.27437 2H3C2.66848 2 2.35054 2.1317 2.11612 2.36612C1.8817 2.60054 1.75 2.91848 1.75 3.25V12.5388C1.7505 12.8598 1.87827 13.1676 2.10531 13.3947C2.33236 13.6217 2.64016 13.7495 2.96125 13.75H14.0556C14.3723 13.7497 14.6759 13.6237 14.8998 13.3998C15.1237 13.1759 15.2497 12.8723 15.25 12.5556V5.5C15.25 5.16848 15.1183 4.85054 14.8839 4.61612C14.6495 4.3817 14.3315 4.25 14 4.25ZM3.25 3.5H6.16313L6.83 4.25H3.25V3.5ZM13.75 12.25H3.25V5.75H13.75V12.25Z" fill="#1F1F23"/>
</svg>
