<svg width="17" height="16" viewBox="0 0 17 16" fill="none" xmlns="http://www.w3.org/2000/svg">
<path d="M14 3H11.75V2.5C11.75 2.03587 11.5656 1.59075 11.2374 1.26256C10.9092 0.934374 10.4641 0.75 10 0.75H7C6.53587 0.75 6.09075 0.934374 5.76256 1.26256C5.43437 1.59075 5.25 2.03587 5.25 2.5V3H3C2.66848 3 2.35054 3.1317 2.11612 3.36612C1.8817 3.60054 1.75 3.91848 1.75 4.25V12.25C1.75 12.5815 1.8817 12.8995 2.11612 13.1339C2.35054 13.3683 2.66848 13.5 3 13.5H14C14.3315 13.5 14.6495 13.3683 14.8839 13.1339C15.1183 12.8995 15.25 12.5815 15.25 12.25V4.25C15.25 3.91848 15.1183 3.60054 14.8839 3.36612C14.6495 3.1317 14.3315 3 14 3ZM6.75 2.5C6.75 2.4337 6.77634 2.37011 6.82322 2.32322C6.87011 2.27634 6.9337 2.25 7 2.25H10C10.0663 2.25 10.1299 2.27634 10.1768 2.32322C10.2237 2.37011 10.25 2.4337 10.25 2.5V3H6.75V2.5ZM13.75 4.5V8.5H3.25V4.5H13.75ZM3.25 12V10H13.75V12H3.25Z" fill="#1F1F23"/>
</svg>
